<svg width="31" height="24" viewBox="0 0 31 24" fill="none" xmlns="http://www.w3.org/2000/svg">
<path d="M30.0742 2.82353C28.9871 3.31765 27.8153 3.64235 26.6012 3.79765C27.8436 3.04941 28.8036 1.86353 29.2553 0.437647C28.0836 1.14353 26.7847 1.63765 25.4153 1.92C24.3 0.705883 22.733 0 20.9542 0C17.6365 0 14.9259 2.71059 14.9259 6.05647C14.9259 6.53647 14.9824 7.00235 15.0812 7.44C10.0553 7.18588 5.58004 4.77176 2.60122 1.11529C2.07886 2.00471 1.78239 3.04941 1.78239 4.15059C1.78239 6.25412 2.84122 8.11765 4.47886 9.17647C3.47651 9.17647 2.54475 8.89412 1.72592 8.47059V8.51294C1.72592 11.4494 3.81533 13.9059 6.58239 14.4565C5.69401 14.6996 4.76135 14.7334 3.85769 14.5553C4.24113 15.7588 4.99209 16.8119 6.005 17.5665C7.01792 18.3211 8.24185 18.7393 9.50475 18.7624C7.36399 20.4571 4.71039 21.3732 1.98004 21.36C1.50004 21.36 1.02004 21.3318 0.540039 21.2753C3.22239 22.9976 6.41298 24 9.82945 24C20.9542 24 27.0671 14.7671 27.0671 6.76235C27.0671 6.49412 27.0671 6.24 27.053 5.97176C28.2389 5.12471 29.2553 4.05176 30.0742 2.82353V2.82353Z" fill="#E94444"/>
</svg>
