<svg width="50" height="50" viewBox="0 0 50 50" fill="none" xmlns="http://www.w3.org/2000/svg">
<g clip-path="url(#clip0_929_2)">
<path d="M10.4164 0C4.67578 0 0 4.67578 0 10.4164C0 15.4438 3.58633 19.6551 8.33359 20.6234V35.4164C8.33359 40.0141 12.1148 43.75 16.6664 43.75H16.7426C17.2512 47.2746 20.2973 50 23.9586 50C27.9734 50 31.25 46.7234 31.25 42.7086C31.25 38.6937 27.9734 35.4164 23.9586 35.4164C20.2977 35.4164 17.2516 38.1418 16.7426 41.6664H16.6664C13.2535 41.6664 10.4164 38.8727 10.4164 35.4164V24.9137C11.0904 25.6018 11.8951 26.1482 12.7832 26.5208C13.6714 26.8935 14.6251 27.0848 15.5883 27.0836H16.7426C17.2516 30.6082 20.2973 33.3336 23.9586 33.3336C27.6199 33.3336 30.6652 30.6082 31.1734 27.0836H35.4926C36.0016 30.6082 39.0473 33.3336 42.7086 33.3336C46.7234 33.3336 50 30.0563 50 26.0414C50 22.0266 46.7234 18.75 42.7086 18.75C39.0473 18.75 36.0012 21.4754 35.4926 25H31.1738C30.6656 21.4754 27.6199 18.75 23.9586 18.75C20.2973 18.75 17.2512 21.4754 16.7426 25H15.5883C13.0754 25 10.9816 23.2074 10.5148 20.8312C16.2102 20.7781 20.8336 16.1242 20.8336 10.4164C20.8336 4.67578 16.157 0 10.4164 0ZM10.4164 2.08359C11.5114 2.08133 12.596 2.29531 13.608 2.71326C14.6201 3.13121 15.5396 3.74491 16.3139 4.51912C17.0882 5.29333 17.702 6.21283 18.12 7.22484C18.5381 8.23685 18.7522 9.32145 18.75 10.4164C18.7521 11.5114 18.5379 12.596 18.1198 13.608C17.7018 14.62 17.088 15.5395 16.3137 16.3137C15.5395 17.088 14.62 17.7018 13.608 18.1198C12.596 18.5379 11.5114 18.7521 10.4164 18.75C9.32145 18.7522 8.23685 18.5381 7.22484 18.12C6.21283 17.702 5.29333 17.0882 4.51912 16.3139C3.74491 15.5396 3.13121 14.6201 2.71326 13.608C2.29531 12.596 2.08133 11.5114 2.08359 10.4164C2.08143 9.32152 2.29549 8.23698 2.71349 7.22502C3.13148 6.21306 3.74519 5.2936 4.5194 4.5194C5.2936 3.74519 6.21306 3.13148 7.22502 2.71349C8.23698 2.29549 9.32152 2.08143 10.4164 2.08359ZM8.3793 5.0293C7.29297 5.03477 6.25 5.90742 6.25 7.09609V13.7535C6.25 15.3328 8.08945 16.3563 9.43164 15.5242L14.7574 12.2215C16.0297 11.4324 16.0363 9.48633 14.7699 8.68828L9.44375 5.33281C9.12562 5.13111 8.75596 5.02571 8.3793 5.0293ZM8.33359 7.09609L13.6598 10.4508L8.33359 13.7535V7.09609ZM23.9586 20.8336C24.6431 20.8314 25.3213 20.9647 25.9541 21.2256C26.5869 21.4866 27.1619 21.8701 27.6459 22.3541C28.1299 22.8381 28.5134 23.4131 28.7744 24.0459C29.0353 24.6787 29.1686 25.3569 29.1664 26.0414C29.1685 26.7259 29.0353 27.4041 28.7743 28.037C28.5133 28.6698 28.1298 29.2448 27.6458 29.7289C27.1618 30.213 26.5869 30.5965 25.9541 30.8576C25.3213 31.1187 24.6431 31.252 23.9586 31.25C23.274 31.2521 22.5958 31.1187 21.9629 30.8577C21.33 30.5967 20.755 30.2131 20.271 29.729C19.7869 29.245 19.4033 28.67 19.1423 28.0371C18.8813 27.4042 18.7479 26.726 18.75 26.0414C18.748 25.3569 18.8813 24.6787 19.1424 24.0459C19.4035 23.4131 19.7871 22.8382 20.2711 22.3542C20.7552 21.8702 21.3302 21.4867 21.963 21.2257C22.5959 20.9647 23.2741 20.8315 23.9586 20.8336ZM42.7086 20.8336C43.3931 20.8314 44.0713 20.9647 44.7041 21.2256C45.3369 21.4866 45.9119 21.8701 46.3959 22.3541C46.8799 22.8381 47.2634 23.4131 47.5244 24.0459C47.7853 24.6787 47.9186 25.3569 47.9164 26.0414C47.9185 26.7259 47.7853 27.4041 47.5243 28.037C47.2633 28.6698 46.8798 29.2448 46.3958 29.7289C45.9118 30.213 45.3369 30.5965 44.7041 30.8576C44.0713 31.1187 43.3931 31.252 42.7086 31.25C42.024 31.2521 41.3458 31.1187 40.7129 30.8577C40.08 30.5967 39.505 30.2131 39.021 29.729C38.5369 29.245 38.1533 28.67 37.8923 28.0371C37.6313 27.4042 37.4979 26.726 37.5 26.0414C37.498 25.3569 37.6313 24.6787 37.8924 24.0459C38.1535 23.4131 38.537 22.8382 39.0211 22.3542C39.5052 21.8702 40.0802 21.4867 40.713 21.2257C41.3459 20.9647 42.0241 20.8315 42.7086 20.8336ZM26.0805 23.5488C25.8041 23.5487 25.539 23.6583 25.3434 23.8535L22.8824 26.3121L22.0648 25.498C21.8692 25.3031 21.6041 25.1938 21.3278 25.1942C21.0516 25.1947 20.7868 25.3048 20.5918 25.5004C20.4952 25.5973 20.4187 25.7124 20.3666 25.8389C20.3145 25.9654 20.2879 26.1009 20.2882 26.2378C20.2885 26.3746 20.3157 26.51 20.3683 26.6363C20.421 26.7626 20.498 26.8773 20.5949 26.9738L22.1473 28.5207C22.3426 28.7153 22.6071 28.8246 22.8829 28.8245C23.1586 28.8245 23.4231 28.7151 23.6184 28.5203L26.8156 25.3273C26.9124 25.2307 26.9892 25.1158 27.0417 24.9895C27.0941 24.8631 27.1211 24.7276 27.1212 24.5908C27.1213 24.454 27.0944 24.3185 27.0421 24.192C26.9898 24.0656 26.9131 23.9507 26.8164 23.8539C26.6211 23.659 26.3564 23.549 26.0805 23.5488ZM44.8305 23.5488C44.5541 23.5487 44.289 23.6583 44.0934 23.8535L41.6324 26.3121L40.8148 25.498C40.6192 25.3031 40.3541 25.1938 40.0778 25.1942C39.8016 25.1947 39.5368 25.3048 39.3418 25.5004C39.2452 25.5973 39.1687 25.7124 39.1166 25.8389C39.0645 25.9654 39.0379 26.1009 39.0382 26.2378C39.0385 26.3746 39.0657 26.51 39.1183 26.6363C39.171 26.7626 39.248 26.8773 39.3449 26.9738L40.8973 28.5207C41.0926 28.7153 41.3571 28.8246 41.6329 28.8245C41.9086 28.8245 42.1731 28.7151 42.3684 28.5203L45.5656 25.3273C45.6624 25.2307 45.7392 25.1158 45.7917 24.9895C45.8441 24.8631 45.8711 24.7276 45.8712 24.5908C45.8713 24.454 45.8444 24.3185 45.7921 24.192C45.7398 24.0656 45.6631 23.9507 45.5664 23.8539C45.3711 23.659 45.1064 23.549 44.8305 23.5488ZM23.9586 37.5C24.6431 37.498 25.3213 37.6313 25.9541 37.8924C26.5869 38.1535 27.1618 38.537 27.6458 39.0211C28.1298 39.5052 28.5133 40.0802 28.7743 40.713C29.0353 41.3459 29.1685 42.0241 29.1664 42.7086C29.1686 43.3931 29.0353 44.0713 28.7744 44.7041C28.5134 45.3369 28.1299 45.9119 27.6459 46.3959C27.1619 46.8799 26.5869 47.2634 25.9541 47.5244C25.3213 47.7853 24.6431 47.9186 23.9586 47.9164C23.2741 47.9185 22.5959 47.7853 21.963 47.5243C21.3302 47.2633 20.7552 46.8798 20.2711 46.3958C19.7871 45.9118 19.4035 45.3369 19.1424 44.7041C18.8813 44.0713 18.748 43.3931 18.75 42.7086C18.7479 42.024 18.8813 41.3458 19.1423 40.7129C19.4033 40.08 19.7869 39.505 20.271 39.021C20.755 38.5369 21.33 38.1533 21.9629 37.8923C22.5958 37.6313 23.274 37.4979 23.9586 37.5ZM21.875 41.1461C21.0184 41.1461 20.3125 41.852 20.3125 42.7086C20.3125 43.566 21.0188 44.2711 21.875 44.2711C22.7312 44.2711 23.4375 43.566 23.4375 42.7086C23.4375 41.852 22.7316 41.1461 21.875 41.1461ZM26.0414 41.1461C25.1848 41.1461 24.4789 41.852 24.4789 42.7086C24.4789 43.566 25.1852 44.2711 26.0414 44.2711C26.8977 44.2711 27.6039 43.566 27.6039 42.7086C27.6039 41.852 26.898 41.1461 26.0414 41.1461ZM21.875 42.1875C22.168 42.1875 22.3961 42.416 22.3961 42.7086C22.3961 43.0027 22.1684 43.2289 21.875 43.2289C21.582 43.2289 21.3539 43.0023 21.3539 42.7086C21.3539 42.4156 21.5824 42.1875 21.875 42.1875ZM26.0414 42.1875C26.3344 42.1875 26.5625 42.416 26.5625 42.7086C26.5625 43.0027 26.3348 43.2289 26.0414 43.2289C25.7484 43.2289 25.5211 43.0023 25.5211 42.7086C25.5211 42.4156 25.7488 42.1875 26.0414 42.1875Z" fill="#2088FF"/>
<path d="M42.7085 35.4164C39.0433 35.4164 35.9945 38.1481 35.491 41.6785C35.4565 41.6756 35.422 41.6741 35.3874 41.6742L34.3328 41.7094C34.0568 41.7185 33.7956 41.8367 33.6068 42.0382C33.418 42.2397 33.3169 42.508 33.3257 42.784C33.3348 43.0601 33.4531 43.3212 33.6547 43.5101C33.8563 43.6989 34.1247 43.8 34.4007 43.791L35.4554 43.757L35.4933 43.7547C36.0039 47.277 39.0488 50 42.7085 50C46.7234 50 49.9999 46.7234 49.9999 42.7086C49.9999 38.6938 46.7234 35.4164 42.7085 35.4164ZM42.7085 37.5C43.3931 37.498 44.0712 37.6314 44.704 37.8924C45.3368 38.1535 45.9118 38.5371 46.3958 39.0211C46.8798 39.5052 47.2633 40.0802 47.5243 40.713C47.7852 41.3459 47.9185 42.0241 47.9164 42.7086C47.9185 43.3931 47.7853 44.0713 47.5243 44.7041C47.2634 45.3369 46.8799 45.9119 46.3959 46.3959C45.9118 46.8799 45.3369 47.2635 44.704 47.5244C44.0712 47.7854 43.3931 47.9186 42.7085 47.9164C42.024 47.9185 41.3458 47.7853 40.713 47.5243C40.0801 47.2634 39.5051 46.8798 39.0211 46.3958C38.537 45.9118 38.1534 45.3369 37.8923 44.7041C37.6313 44.0713 37.4979 43.3931 37.4999 42.7086C37.4979 42.024 37.6312 41.3458 37.8922 40.7129C38.1533 40.0801 38.5368 39.505 39.0209 39.021C39.505 38.5369 40.08 38.1533 40.7129 37.8923C41.3457 37.6313 42.024 37.4979 42.7085 37.5Z" fill="#79B8FF"/>
</g>
<defs>
<clipPath id="clip0_929_2">
<rect width="50" height="50" fill="white"/>
</clipPath>
</defs>
</svg>
