<svg width="56" height="50" viewBox="0 0 56 50" fill="none" xmlns="http://www.w3.org/2000/svg">
<path fill-rule="evenodd" clip-rule="evenodd" d="M46.1044 5.68826L47.2661 7.21774C47.5711 7.62141 47.4949 8.20001 47.0912 8.50501L45.8578 9.44243C46.082 10.039 46.2255 10.6759 46.2839 11.3262L47.6877 11.5191C48.1901 11.5864 48.5399 12.0529 48.4727 12.5552L48.2125 14.4615C48.1452 14.9638 47.6788 15.3181 47.1764 15.2464L45.6425 15.0356C45.3689 15.6321 45.019 16.1793 44.6064 16.6682L45.4675 17.7985C45.7725 18.2022 45.6918 18.7808 45.2881 19.0858L43.7586 20.2475C43.355 20.5525 42.7764 20.4717 42.4714 20.0725L41.5339 18.8391C40.9329 19.0634 40.3005 19.2069 39.6456 19.2652L39.4528 20.6691C39.3855 21.1714 38.919 21.5213 38.4167 21.454L36.5104 21.1939C36.0081 21.1266 35.6582 20.6601 35.7255 20.1578L35.9363 18.6238C35.3443 18.3502 34.7926 18.0003 34.3037 17.5922L33.1734 18.4489C32.7697 18.7539 32.1911 18.6776 31.8861 18.2739L30.7244 16.7445C30.4194 16.3408 30.4957 15.7622 30.8994 15.4572L32.1328 14.5198C31.9085 13.9187 31.765 13.2863 31.7067 12.6359L30.3028 12.4431C29.8005 12.3758 29.4461 11.9093 29.5179 11.407L29.778 9.50074C29.8498 8.99839 30.3118 8.64854 30.8141 8.71582L32.3481 8.92663C32.6217 8.33457 32.9716 7.78288 33.3797 7.29399L32.523 6.1637C32.218 5.76451 32.2943 5.18591 32.698 4.88091L34.2274 3.71922C34.6311 3.41422 35.2097 3.49047 35.5147 3.89415L36.4521 5.1276C37.0487 4.90333 37.6856 4.75981 38.3359 4.7015L38.5288 3.29761C38.5961 2.79525 39.0626 2.44092 39.5649 2.5082L41.4712 2.76834C41.9735 2.83562 42.3278 3.30209 42.2561 3.80444L42.0453 5.33841C42.6418 5.61201 43.189 5.96186 43.6824 6.3745L44.8127 5.51782C45.2164 5.20833 45.795 5.28458 46.1044 5.68826ZM13.3081 32.6044V25.2037H17.1206C17.8293 25.2037 18.3675 25.262 18.7398 25.3876C19.1121 25.5087 19.4171 25.733 19.6413 26.0604C19.8701 26.3923 19.9867 26.7915 19.9867 27.2624C19.9867 27.6706 19.897 28.0294 19.7221 28.3254C19.5471 28.626 19.3049 28.8682 18.9999 29.0521C18.8071 29.1687 18.5379 29.2674 18.1971 29.3436C18.4707 29.4378 18.668 29.523 18.7891 29.6172C18.8743 29.68 18.9954 29.8101 19.1524 30.0074C19.3094 30.2048 19.4171 30.3618 19.4709 30.4694L20.5832 32.6089H17.9997L16.7797 30.3528C16.6227 30.0612 16.4882 29.8684 16.3671 29.7832C16.2011 29.671 16.0127 29.6127 15.8064 29.6127H15.6046V32.6089H13.3081V32.6044ZM21.3726 45.4906H17.1027L16.4882 47.5H12.6398L17.2282 35.3045H21.3547L25.9252 47.5H21.9781L21.3726 45.4906ZM20.5743 42.8488L19.2421 38.4622L17.9055 42.8488H20.5743ZM26.8133 35.3045H33.0837C34.4517 35.3045 35.4743 35.6275 36.1516 36.2778C36.8289 36.9282 37.1698 37.8567 37.1698 39.0542C37.1698 40.2877 36.7975 41.252 36.0574 41.9472C35.3174 42.6424 34.1826 42.9878 32.6621 42.9878H30.5944V47.5H26.8133V35.3045V35.3045ZM30.5944 40.5164H31.5228C32.2539 40.5164 32.7697 40.3908 33.0657 40.1352C33.3618 39.884 33.5098 39.5566 33.5098 39.1664C33.5098 38.7851 33.3797 38.4577 33.1241 38.1931C32.8684 37.9284 32.384 37.7939 31.6753 37.7939H30.5944V40.5164V40.5164ZM38.6948 35.3045H42.4759V47.5H38.6948V35.3045V35.3045ZM15.6046 28.2088H16.5689C16.6721 28.2088 16.8739 28.1729 17.1744 28.1057C17.3269 28.0743 17.4525 27.998 17.5467 27.8724C17.6454 27.7468 17.6902 27.6033 17.6902 27.4418C17.6902 27.2041 17.614 27.0157 17.4615 26.8902C17.309 26.7601 17.0264 26.6973 16.6093 26.6973H15.6046V28.2088ZM21.0228 25.2037H27.1452V26.7825H23.3192V27.9621H26.8671V29.4692H23.3192V30.9269H27.2573V32.5999H21.0228V25.2037ZM27.8 30.1554L29.9709 30.0209C30.0158 30.3752 30.1144 30.6398 30.258 30.8237C30.4957 31.1198 30.8321 31.2723 31.2672 31.2723C31.5901 31.2723 31.8458 31.196 32.0207 31.0435C32.1956 30.891 32.2853 30.7116 32.2853 30.5098C32.2853 30.3169 32.2001 30.1465 32.0341 29.994C31.8682 29.8415 31.478 29.7024 30.8635 29.5634C29.8633 29.3391 29.1501 29.0386 28.7195 28.6663C28.2889 28.294 28.0736 27.8186 28.0736 27.24C28.0736 26.8588 28.1858 26.4999 28.4055 26.1635C28.6253 25.8271 28.9572 25.558 29.4013 25.3652C29.8453 25.1723 30.4508 25.0781 31.2223 25.0781C32.1687 25.0781 32.8863 25.253 33.3842 25.6074C33.8776 25.9617 34.1736 26.5179 34.2678 27.2893L32.1194 27.4194C32.061 27.083 31.9399 26.8363 31.7605 26.6883C31.5766 26.5358 31.321 26.4596 31.0025 26.4596C30.7379 26.4596 30.5361 26.5179 30.4015 26.63C30.2669 26.7421 30.1997 26.8812 30.1997 27.0427C30.1997 27.1593 30.258 27.2624 30.3656 27.3611C30.4733 27.4553 30.7244 27.5495 31.1281 27.6347C32.1283 27.85 32.846 28.0698 33.2766 28.2896C33.7071 28.5093 34.0256 28.7829 34.2185 29.1104C34.4158 29.4333 34.5145 29.8011 34.5145 30.2048C34.5145 30.6802 34.3844 31.1153 34.1198 31.5145C33.8596 31.9137 33.4919 32.2187 33.0209 32.425C32.5499 32.6313 31.9579 32.7345 31.2402 32.7345C29.9844 32.7345 29.1097 32.4923 28.6253 32.0079C28.1409 31.5145 27.8673 30.9 27.8 30.1554ZM34.8464 25.2037H41.8031V27.0337H39.4707V32.6044H37.1832V27.0337H34.8464V25.2037V25.2037ZM27.1497 7.63935C26.3289 7.57656 25.4991 7.58553 24.6783 7.66626C22.1531 7.90847 19.6996 8.82795 17.6723 10.4023C15.3265 12.2188 13.5458 14.9369 12.8596 18.5386L12.6443 19.6644L11.523 19.8617C10.4241 20.0546 9.4418 20.3192 8.58063 20.6556C7.74637 20.9786 7.00181 21.3778 6.35145 21.8487C5.83116 22.2255 5.38263 22.6471 5.00138 23.1046C3.82175 24.5174 3.27455 26.2891 3.28801 28.0832C3.30146 29.9043 3.89352 31.7432 4.98793 33.2548C5.39609 33.8154 5.86704 34.3312 6.40527 34.7798C6.95248 35.2328 7.56696 35.6095 8.25769 35.8921C8.64791 36.0536 9.06504 36.1881 9.50011 36.2958V39.6552C8.60306 39.4938 7.77777 39.2516 7.0063 38.9331C5.98814 38.5115 5.0866 37.9688 4.29271 37.305C3.53918 36.677 2.87985 35.9639 2.31919 35.1879C0.82559 33.1247 0.01824 30.604 0.000298871 28.0922C-0.0176422 25.5535 0.771766 23.0283 2.47617 20.983C3.02786 20.3192 3.67822 19.7092 4.42278 19.171C5.28844 18.5431 6.27968 18.0138 7.401 17.5787C8.17247 17.2782 8.99776 17.027 9.8679 16.8252C10.8547 12.9051 12.9583 9.88648 15.6629 7.79185C18.1926 5.83179 21.2381 4.68804 24.3733 4.38753C26.0194 4.23054 27.6879 4.30231 29.3205 4.60731C29.2847 4.75532 29.2533 4.90333 29.2353 5.05583L29.2308 5.08275C29.1994 5.33841 29.186 5.59407 29.1994 5.85421C28.8541 5.98877 28.5311 6.17267 28.2396 6.39693L28.2261 6.4059C27.7911 6.73333 27.4233 7.15494 27.1497 7.63935ZM50.8813 16.2511C51.1324 16.4798 51.3746 16.7176 51.6124 16.9732C52.0923 17.489 52.5453 18.0721 52.9714 18.7225C54.4067 20.9292 55.1423 23.8761 55.1109 26.7601C55.0795 29.5903 54.317 32.407 52.7561 34.4792C51.738 35.8293 50.4327 36.9327 48.8674 37.8073C47.7954 38.4083 46.5889 38.9062 45.2747 39.3099V35.8338C45.9833 35.5692 46.6427 35.2731 47.2482 34.9367C48.4278 34.2774 49.3922 33.4745 50.1143 32.5102C51.2356 31.0166 51.7873 28.904 51.8097 26.7377C51.8366 24.4636 51.2805 22.1806 50.1995 20.5211C49.89 20.0411 49.5491 19.6106 49.1903 19.2248C49.0513 19.0768 48.9122 18.9378 48.7687 18.8032C48.7911 18.5789 48.8001 18.3502 48.7866 18.1214C49.132 17.9869 49.4549 17.803 49.7465 17.5787L49.7599 17.5698C50.2219 17.2154 50.6077 16.7669 50.8813 16.2511ZM39.5066 8.24038C41.5743 8.52295 43.0186 10.4292 42.736 12.4969C42.4534 14.5646 40.5472 16.0134 38.4795 15.7308C36.4118 15.4482 34.963 13.542 35.2501 11.4743C35.5371 9.40655 37.4389 7.95781 39.5066 8.24038Z" fill="#E94444"/>
</svg>
