<svg width="50" height="50" viewBox="0 0 50 50" fill="none" xmlns="http://www.w3.org/2000/svg">
<g clip-path="url(#clip0_931_52)">
<path d="M38.2812 0H11.7188C5.24666 0 0 5.24666 0 11.7188V38.2812C0 44.7533 5.24666 50 11.7188 50H38.2812C44.7533 50 50 44.7533 50 38.2812V11.7188C50 5.24666 44.7533 0 38.2812 0Z" fill="url(#paint0_linear_931_52)"/>
<path d="M27.3983 14.2668L22.1911 14.2576L14.9758 33.3762L19.6856 33.3844L20.8631 30.1449L27.9676 30.157L26.6245 26.5699L21.9475 26.5617L24.8594 18.335L30.5106 33.4029L35.2206 33.4111L27.3983 14.2668Z" fill="white"/>
<path d="M45.5355 19.3602C45.5222 19.2954 45.5028 19.2321 45.4775 19.1711C45.47 19.1504 45.4611 19.1303 45.4507 19.1109C45.3614 18.9268 45.2219 18.7717 45.0482 18.6635C44.8737 18.5543 44.6721 18.4961 44.4663 18.4955C44.1841 18.494 43.9127 18.6045 43.7118 18.8027C43.5723 18.941 43.4756 19.1166 43.433 19.3083C43.3905 19.5001 43.404 19.7001 43.472 19.8844L43.4689 19.8856C43.9733 21.5568 44.2427 23.2902 44.2693 25.0357C44.3495 30.0981 42.414 34.8543 38.82 38.4277C35.2255 42.0014 30.4021 43.9641 25.2384 43.9553C20.0751 43.9463 15.1888 41.9664 11.4812 38.3805C7.77277 34.7943 5.68683 30.0313 5.60655 24.9689C5.52648 19.9064 7.46202 15.1504 11.0564 11.577C14.6505 8.00332 19.4743 6.04063 24.6376 6.04961C29.2484 6.05742 33.6368 7.63809 37.1636 10.5299C37.0478 10.8302 36.9911 11.1499 36.9964 11.4717C37.0189 12.8934 38.2124 14.0473 39.6628 14.0498C41.1126 14.0523 42.27 12.9023 42.2474 11.4807C42.2249 10.059 41.031 8.90449 39.5812 8.90196C39.2752 8.90088 38.9715 8.95289 38.6833 9.05567C34.873 5.87891 29.9526 3.95274 24.6042 3.94336C12.7415 3.92285 3.27433 13.3346 3.4587 24.9652C3.64308 36.5957 13.4089 46.0408 25.2718 46.0613C37.1347 46.0818 46.6017 36.6703 46.4175 25.0395C46.387 23.1147 46.0902 21.2035 45.5355 19.3602Z" fill="white"/>
</g>
<defs>
<linearGradient id="paint0_linear_931_52" x1="0" y1="0" x2="50" y2="50" gradientUnits="userSpaceOnUse">
<stop stop-color="#4010AC"/>
<stop offset="1" stop-color="#D540A8"/>
</linearGradient>
<clipPath id="clip0_931_52">
<rect width="50" height="50" fill="white"/>
</clipPath>
</defs>
</svg>
