<svg width="50" height="50" viewBox="0 0 50 50" fill="none" xmlns="http://www.w3.org/2000/svg">
<g clip-path="url(#clip0_929_38)">
<path d="M23.1125 0.979174C21.3583 0.979174 19.5792 1.17084 17.7958 1.57917C14.0561 2.4185 10.5751 4.15044 7.64999 6.62709C5.68021 8.28776 4.01622 10.2803 2.73332 12.5146C1.78899 14.197 1.08293 16.0025 0.635404 17.8792C-0.193763 21.2542 -0.19793 24.8292 0.54582 28.3958C0.722904 29.2396 0.92707 30.0813 1.19165 30.9208C1.88967 33.6905 3.06108 36.3188 4.65415 38.6896C4.57295 38.9814 4.51307 39.2787 4.47499 39.5792C4.24577 41.3894 4.74051 43.217 5.85162 44.6644C6.96272 46.1118 8.60033 47.062 10.4083 47.3083C11.8023 47.4883 13.218 47.2368 14.4646 46.5875C16.6417 47.65 18.9854 48.3875 21.4208 48.7542C24.391 49.1974 27.4175 49.0879 30.3479 48.4313C34.1427 47.5592 37.6706 45.7831 40.6312 43.2542C42.608 41.5498 44.267 39.5085 45.5312 37.225C47.1042 34.3829 48.0664 31.2437 48.3562 28.0083C48.6058 24.959 48.2533 21.8904 47.3187 18.9771C47.684 18.816 48.0215 18.6125 48.3312 18.3667H48.3333C49.1708 17.6958 49.7771 16.7125 49.9521 15.5708C50.1245 14.4047 49.8295 13.2176 49.1311 12.268C48.4327 11.3183 47.3875 10.6829 46.2229 10.5C45.3693 10.3683 44.4958 10.4923 43.7125 10.8563C43.6305 10.7674 43.5521 10.6771 43.4771 10.5854C41.4855 8.09679 39.0252 6.02293 36.2354 4.48126C35.0569 3.82834 33.8312 3.26427 32.5687 2.79376C31.1741 2.25551 29.7391 1.82849 28.2771 1.51667C26.5782 1.15858 24.8487 0.978446 23.1125 0.979174ZM24.6 1.66251C25.3149 1.65491 26.0297 1.68411 26.7417 1.75001C28.7002 1.91915 30.6246 2.36743 32.4562 3.08126C34.5062 3.89376 36.3937 5.07709 38.0958 6.48126C39.7756 7.87787 41.2431 9.51168 42.4521 11.3313C42.5048 11.4146 42.5535 11.4979 42.5979 11.5813C41.8347 12.2549 41.3276 13.1715 41.1625 14.176C40.9974 15.1805 41.1843 16.2112 41.6916 17.0938C41.3625 17.3313 39.6708 18.5354 38.2875 19.5583C37.425 20.2 36.7604 20.7188 36.7604 20.7188L37.9708 22.1354C37.9708 22.1354 38.5875 21.5604 39.3562 20.8063C40.5479 19.6354 41.9166 18.2375 42.2625 17.8833C42.7547 18.431 43.3759 18.8468 44.0698 19.0932C44.7637 19.3395 45.5081 19.4085 46.2354 19.2938C46.7382 22.0818 46.729 24.9381 46.2083 27.7229C45.6915 30.595 44.6498 33.3472 43.1354 35.8417C41.9418 37.8256 40.4848 39.6387 38.8041 41.2313C36.325 43.575 33.3187 45.4438 29.8333 46.5042C27.1612 47.353 24.354 47.695 21.5562 47.5125C19.3795 47.3652 17.2349 46.9078 15.1875 46.1542C15.9883 45.6103 16.6652 44.9034 17.1739 44.0799C17.6826 43.2563 18.0117 42.3346 18.1396 41.375C18.3087 40.0636 18.096 38.7312 17.5271 37.5375C17.9021 37.2 18.3667 36.7813 18.8937 36.2875C21.0083 34.2979 23.7958 31.4896 23.7958 31.4896L22.8167 30.2417C22.8167 30.2417 19.4208 32.2667 16.9812 33.8417C16.3417 34.2542 15.7875 34.6292 15.3625 34.9188C14.4331 34.2363 13.347 33.7986 12.2042 33.6458C10.7005 33.4566 9.17626 33.765 7.86441 34.5238C6.55256 35.2826 5.52527 36.4502 4.93957 37.8479C4.40937 37.1311 3.92574 36.3809 3.49165 35.6021C2.65584 34.092 1.9933 32.4922 1.51665 30.8333C1.32615 30.001 1.187 29.1577 1.09999 28.3083C0.75832 24.8646 1.31457 21.5208 2.4104 18.4042C3.0083 16.7454 3.76676 15.1489 4.67499 13.6375C5.86249 11.6208 7.27499 9.73751 8.9854 8.10417C13.1799 4.04638 18.7645 1.74383 24.6 1.66251ZM24.2937 8.44792C22.1864 8.45887 20.1686 9.30085 18.6784 10.791C17.1883 12.2811 16.3464 14.299 16.3354 16.4063V21.3229H14.3771C12.8125 21.3229 11.5083 22.625 11.5083 24.1917V32.1083H14.55V24.3625H34.0375V37.4125H20.875V40.4542H34.2083C35.7729 40.4542 37.0771 39.1521 37.0771 37.5854V24.1896C37.07 23.4309 36.7655 22.7054 36.229 22.1689C35.6926 21.6324 34.967 21.3279 34.2083 21.3208H32.25V16.4042C32.2385 14.2972 31.3963 12.2799 29.9062 10.7902C28.4162 9.30056 26.3986 8.45887 24.2917 8.44792H24.2937ZM24.2937 11.4896C25.596 11.4951 26.8434 12.0148 27.7643 12.9357C28.6852 13.8566 29.2049 15.104 29.2104 16.4063V21.3229H19.375V16.4063C19.3805 15.104 19.9002 13.8566 20.8211 12.9357C21.742 12.0148 22.9894 11.4951 24.2917 11.4896H24.2937ZM45.4208 12.3063C45.8052 12.289 46.1887 12.3569 46.5438 12.5051C46.8989 12.6533 47.2168 12.8782 47.4748 13.1637C47.7329 13.4492 47.9246 13.7882 48.0362 14.1564C48.1479 14.5247 48.1768 14.9131 48.1208 15.2938C48.0214 15.9347 47.6845 16.5148 47.1771 16.9188C46.6229 17.3625 45.9062 17.5813 45.1604 17.4688C44.481 17.3619 43.8712 16.9912 43.4635 16.4373C43.0559 15.8833 42.8833 15.1909 42.9833 14.5104C43.0763 13.9197 43.3689 13.3786 43.8125 12.9775C44.2561 12.5764 44.8237 12.3395 45.4208 12.3063ZM11.2167 36.3021C12.0793 36.2891 12.925 36.5416 13.6394 37.0253C14.3537 37.509 14.9021 38.2005 15.2104 39.0063C15.4521 39.6313 15.5417 40.3146 15.4479 41.0208C15.299 42.1173 14.7232 43.1106 13.8458 43.7848C12.9684 44.4589 11.8603 44.7594 10.7625 44.6208C9.66625 44.4709 8.67344 43.8945 7.99976 43.0168C7.32608 42.1391 7.02594 41.0311 7.16457 39.9333C7.30081 38.9463 7.78283 38.0397 8.52483 37.3748C9.26683 36.7098 10.2207 36.3297 11.2167 36.3021Z" fill="white"/>
</g>
<defs>
<clipPath id="clip0_929_38">
<rect width="50" height="50" fill="white"/>
</clipPath>
</defs>
</svg>
