<svg width="51" height="50" viewBox="0 0 51 50" fill="none" xmlns="http://www.w3.org/2000/svg">
<path d="M33.5704 27.5139C32.7997 27.5156 32.0311 27.4318 31.2788 27.2639C31.717 28.2114 32.0523 29.2032 32.2788 30.2222H33.5704C34.9869 30.2205 36.3938 29.9907 37.7371 29.5417L36.4454 27.0278C35.5138 27.3203 34.5465 27.4839 33.5704 27.5139ZM26.3899 24.8194L25.8899 24.2917C24.8055 23.2315 23.9692 21.9444 23.4409 20.5229C22.9126 19.1013 22.7055 17.5805 22.8343 16.0694C22.9753 14.0453 23.7204 12.11 24.9732 10.5139L24.8621 12.5C24.8607 12.8477 24.9898 13.1833 25.2238 13.4404C25.4578 13.6976 25.7797 13.8576 26.126 13.8889H26.251C26.5987 13.8903 26.9343 13.7613 27.1914 13.5272C27.4486 13.2932 27.6086 12.9713 27.6399 12.625L28.1121 6.94445C28.1287 6.74328 28.1013 6.5409 28.0318 6.3514C27.9622 6.16191 27.8522 5.98986 27.7093 5.84723C27.5573 5.72407 27.381 5.63442 27.1919 5.58416C27.0028 5.5339 26.8052 5.52415 26.6121 5.55556L20.9316 6.04167C20.5632 6.07298 20.2224 6.24934 19.984 6.53194C19.7457 6.81455 19.6294 7.18026 19.6607 7.54861C19.692 7.91697 19.8684 8.2578 20.151 8.49613C20.4336 8.73446 20.7993 8.85076 21.1677 8.81945L22.9593 8.66667C21.2722 10.7778 20.2779 13.3582 20.1121 16.0556C19.9686 17.9041 20.2256 19.7619 20.8656 21.502C21.5056 23.2422 22.5134 24.8238 23.8204 26.1389L24.251 26.6528C26.0258 28.4869 27.0469 30.9208 27.1121 33.4722C27.1859 34.6279 27.0638 35.7878 26.751 36.9028L29.251 38.1667C29.7873 36.6008 29.9999 34.9422 29.876 33.2917C29.7907 30.136 28.5503 27.1213 26.3899 24.8194ZM45.8899 24.875L44.2093 25C45.7428 23.0152 46.6886 20.64 46.9392 18.1443C47.1897 15.6487 46.735 13.1329 45.6266 10.8829C44.5182 8.63285 42.8008 6.73901 40.6695 5.41668C38.5382 4.09435 36.0786 3.39661 33.5704 3.40278C32.1536 3.39958 30.7459 3.6295 29.4038 4.08334L30.6677 6.58334C32.2533 6.13428 33.9214 6.05922 35.541 6.36405C37.1605 6.66888 38.6872 7.3453 40.001 8.3401C41.3149 9.3349 42.38 10.6209 43.1126 12.0971C43.8453 13.5733 44.2254 15.1993 44.2232 16.8472C44.2228 19.2287 43.4149 21.5397 41.9316 23.4028L42.0704 21.2639C42.0823 21.0815 42.0581 20.8986 41.9993 20.7255C41.9404 20.5525 41.8481 20.3927 41.7275 20.2554C41.6069 20.118 41.4604 20.0057 41.2965 19.925C41.1325 19.8442 40.9542 19.7966 40.7718 19.7847C40.5894 19.7729 40.4065 19.7971 40.2335 19.8559C40.0604 19.9147 39.9007 20.0071 39.7633 20.1277C39.6259 20.2483 39.5137 20.3947 39.4329 20.5587C39.3522 20.7227 39.3045 20.9009 39.2927 21.0833L38.9038 26.75C38.8928 26.951 38.9256 27.152 38.9999 27.339C39.0742 27.5261 39.1884 27.6948 39.3343 27.8333C39.4592 27.96 39.6086 28.0598 39.7734 28.1267C39.9381 28.1936 40.1149 28.2261 40.2927 28.2222H40.4316L46.0982 27.6389C46.281 27.6215 46.4584 27.5681 46.6204 27.4818C46.7824 27.3954 46.9256 27.2778 47.0419 27.1357C47.1581 26.9937 47.245 26.83 47.2976 26.6541C47.3502 26.4782 47.3674 26.2937 47.3482 26.1111C47.3097 25.7575 47.1369 25.4322 46.8656 25.2022C46.5942 24.9722 46.245 24.8551 45.8899 24.875ZM6.54267 28.3889H6.65378L12.3343 27.9028C12.5167 27.8873 12.6943 27.836 12.8569 27.7519C13.0194 27.6678 13.1638 27.5524 13.2819 27.4125C13.3999 27.2726 13.4891 27.1108 13.5446 26.9363C13.6001 26.7619 13.6207 26.5782 13.6052 26.3958C13.5897 26.2134 13.5384 26.0359 13.4543 25.8733C13.3701 25.7107 13.2548 25.5663 13.1149 25.4483C12.975 25.3303 12.8132 25.241 12.6387 25.1855C12.4643 25.1301 12.2806 25.1095 12.0982 25.125L10.1677 25.2917C11.9861 23.9502 14.1857 23.2251 16.4454 23.2222C17.2066 23.2278 17.9653 23.3116 18.7093 23.4722C18.2728 22.5254 17.9421 21.5333 17.7232 20.5139H16.4454C13.4822 20.5095 10.6008 21.4862 8.251 23.2917L8.41767 21.4722C8.43286 21.2897 8.4118 21.106 8.35571 20.9317C8.29962 20.7573 8.20961 20.5958 8.09085 20.4564C7.97209 20.317 7.82693 20.2024 7.66373 20.1193C7.50052 20.0362 7.32249 19.9862 7.13989 19.9722C6.77349 19.9414 6.40983 20.0572 6.12864 20.2941C5.84746 20.531 5.67169 20.8698 5.63989 21.2361L5.15378 26.9028C5.13841 27.0943 5.16294 27.2869 5.22582 27.4685C5.28871 27.65 5.38857 27.8165 5.51911 27.9575C5.64964 28.0985 5.80801 28.2109 5.98419 28.2875C6.16037 28.3641 6.35054 28.4034 6.54267 28.4028V28.3889ZM26.4732 39.2083L20.7927 39.5833C20.4243 39.6073 20.0806 39.7766 19.837 40.054C19.5935 40.3314 19.4701 40.6941 19.4941 41.0625C19.518 41.4309 19.6873 41.7746 19.9647 42.0182C20.2421 42.2617 20.6049 42.3851 20.9732 42.3611L23.1121 42.2083C21.5392 43.4725 19.641 44.2665 17.6364 44.4988C15.6318 44.7311 13.6023 44.3923 11.782 43.5213C9.96159 42.6503 8.42438 41.2826 7.34752 39.5759C6.27065 37.8693 5.69796 35.893 5.69545 33.875C5.70545 32.9353 5.84091 32.0011 6.09823 31.0972L3.66767 29.8056C3.23762 31.1289 3.01736 32.5113 3.01489 33.9028C3.03119 36.4181 3.75134 38.8786 5.09381 41.0058C6.43628 43.1329 8.34746 44.8418 10.611 45.9388C12.8745 47.0359 15.3999 47.4774 17.9014 47.2133C20.4028 46.9491 22.7804 45.99 24.7649 44.4444L24.5982 46.0833C24.579 46.2648 24.5957 46.4483 24.6474 46.6234C24.6991 46.7984 24.7848 46.9615 24.8996 47.1034C25.0144 47.2453 25.1561 47.3632 25.3165 47.4503C25.4768 47.5374 25.6528 47.5921 25.8343 47.6111H25.9871C26.3326 47.6128 26.6664 47.4857 26.9232 47.2546C27.18 47.0235 27.3415 46.7049 27.376 46.3611L27.9593 40.7222C27.98 40.5213 27.9565 40.3183 27.8906 40.1273C27.8247 39.9364 27.718 39.7621 27.5778 39.6166C27.4377 39.4712 27.2674 39.3581 27.0791 39.2851C26.8907 39.2122 26.6887 39.1813 26.4871 39.1944L26.4732 39.2083Z" fill="#FBFBFB"/>
</svg>
