<svg width="50" height="50" viewBox="0 0 50 50" fill="none" xmlns="http://www.w3.org/2000/svg">
<path d="M10.7998 40.7514L7.64136 5.3125H42.3589L39.1962 40.7458L24.979 44.6875L10.7998 40.7514Z" fill="#1572B6"/>
<path d="M25 41.6753L36.4891 38.4902L39.1919 8.21078H25V41.6753Z" fill="#33A9DC"/>
<path d="M25 21.0498H30.7516L31.1481 16.5991H25V12.2523H35.8984L35.7944 13.4181L34.727 25.3966H25V21.0498Z" fill="white"/>
<path d="M25.0266 32.3378L25.0069 32.3434L20.1666 31.0356L19.8572 27.5692H15.4937L16.1026 34.3937L25.0055 36.8659L25.0266 36.8603V32.3378Z" fill="#EBEBEB"/>
<path d="M30.3817 25.2123L29.8586 31.0328L25.0112 32.3406V36.8631L33.9212 34.3938L33.9873 33.6597L34.7425 25.2123H30.3817Z" fill="white"/>
<path d="M25.0155 12.2523V16.5991H14.5165L14.4293 15.6217L14.231 13.4181L14.127 12.2523H25.0155ZM25.0001 21.0498V25.3966H20.2202L20.133 24.4192L19.9362 22.2156L19.8321 21.0498H25.0001Z" fill="#EBEBEB"/>
</svg>
