<svg width="51" height="50" viewBox="0 0 51 50" fill="none" xmlns="http://www.w3.org/2000/svg">
<path d="M29.3132 20.4234H33.2335V24.4328H35.2179C36.1449 24.4287 37.0651 24.2746 37.9429 23.9766C38.4041 23.8234 38.8481 23.6228 39.2679 23.3781C38.7309 22.635 38.4122 21.7567 38.3476 20.8422C38.1835 19.5077 38.5271 18.1602 39.3101 17.0672L39.7226 16.5906L40.2132 16.9859C41.5148 17.9404 42.3967 19.3615 42.6742 20.9516C44.1878 20.4866 45.8238 20.6388 47.2257 21.375L47.7648 21.6875L47.482 22.2406C46.9084 23.2078 46.0603 23.9826 45.0454 24.4667C44.0304 24.9508 42.8946 25.1222 41.782 24.9594C38.3867 33.4172 31.0007 37.4219 22.0288 37.4219C19.7946 37.5545 17.5661 37.0817 15.5781 36.0535C13.5901 35.0253 11.9164 33.4797 10.7335 31.5797L10.6945 31.5125L10.3413 30.7953C9.54408 28.983 9.2323 26.9944 9.43666 25.025L9.49135 24.4312H12.8398V20.4234H16.7617V16.5016H24.6054V12.5797H29.3117L29.3132 20.4234Z" fill="#3A4E55"/>
<path d="M42.0212 21.9078C42.0483 21.0467 41.8598 20.1925 41.4728 19.4227C41.0859 18.6529 40.5128 17.992 39.8056 17.5C39.1926 18.3989 38.9035 19.4794 38.9855 20.5643C39.0676 21.6491 39.516 22.6739 40.2571 23.4703C38.801 24.5492 37.0301 25.1186 35.2181 25.0906H10.0821C9.86821 27.0964 10.2297 29.1217 11.1243 30.9297L11.4103 31.4531C11.5906 31.7605 11.7883 32.0573 12.0025 32.3422C13.0358 32.4089 13.9884 32.4323 14.8603 32.4125C16.273 32.4205 17.6789 32.2156 19.0306 31.8047C19.1062 31.7786 19.1891 31.7836 19.261 31.8186C19.333 31.8536 19.3881 31.9158 19.4142 31.9914C19.4403 32.067 19.4353 32.1499 19.4003 32.2219C19.3652 32.2938 19.3031 32.3489 19.2275 32.375C19.0868 32.424 18.9405 32.4698 18.7884 32.5125C17.8479 32.7755 16.881 32.9327 15.9056 32.9812C15.9743 32.9812 15.8337 32.9922 15.8337 32.9922L15.7056 33.0031C14.6602 33.0478 13.6132 33.0446 12.5681 32.9937L12.5525 33.0047C13.771 34.2724 15.247 35.2645 16.8811 35.914C18.5152 36.5636 20.2695 36.8555 22.0259 36.7703C30.7134 36.7703 38.0821 32.9188 41.3462 24.2703C43.6618 24.5078 45.8868 23.9172 46.8978 21.9422C46.1428 21.5593 45.3092 21.3569 44.4628 21.3509C43.6163 21.345 42.7815 21.5356 42.0212 21.9078Z" fill="#00AADA"/>
<path d="M42.0212 21.9078C42.0483 21.0467 41.8598 20.1925 41.4728 19.4227C41.0859 18.6529 40.5128 17.992 39.8056 17.5C39.1926 18.3989 38.9035 19.4794 38.9855 20.5643C39.0676 21.6491 39.516 22.6739 40.2571 23.4703C38.801 24.5492 37.0301 25.1186 35.2181 25.0906H11.5712C11.4418 26.4912 11.6768 27.9015 12.2534 29.1844C12.83 30.4674 13.7286 31.5794 14.8618 32.4125C16.2746 32.4205 17.6805 32.2156 19.0321 31.8047C19.0696 31.7918 19.1092 31.7863 19.1488 31.7887C19.1883 31.7911 19.227 31.8013 19.2626 31.8186C19.2982 31.8359 19.3301 31.8601 19.3564 31.8898C19.3826 31.9194 19.4028 31.954 19.4157 31.9914C19.4287 32.0289 19.4341 32.0685 19.4317 32.108C19.4293 32.1476 19.4192 32.1863 19.4018 32.2219C19.3845 32.2575 19.3603 32.2894 19.3307 32.3156C19.301 32.3419 19.2665 32.3621 19.229 32.375C19.0884 32.424 18.942 32.4698 18.79 32.5125C17.8238 32.7811 16.8317 32.9456 15.8306 33.0031L15.8009 32.9688C18.7571 34.4859 23.0446 34.4797 27.9603 32.5922C33.5691 30.326 38.4757 26.6114 42.179 21.8281L42.0228 21.9031" fill="#27B9EC"/>
<path d="M10.1289 27.7062C10.2761 28.8283 10.6126 29.9172 11.1242 30.9266L11.4102 31.45C11.5905 31.7574 11.7882 32.0542 12.0023 32.3391C13.0357 32.4057 13.9883 32.4292 14.8602 32.4094C16.2729 32.4174 17.6788 32.2125 19.0305 31.8016C19.0679 31.7886 19.1075 31.7832 19.1471 31.7856C19.1866 31.788 19.2253 31.7981 19.2609 31.8155C19.2966 31.8328 19.3284 31.857 19.3547 31.8866C19.381 31.9163 19.4011 31.9508 19.4141 31.9883C19.427 32.0257 19.4324 32.0653 19.43 32.1049C19.4276 32.1444 19.4175 32.1831 19.4001 32.2187C19.3828 32.2544 19.3586 32.2862 19.329 32.3125C19.2993 32.3388 19.2648 32.3589 19.2273 32.3719C19.0867 32.4208 18.9404 32.4667 18.7883 32.5094C17.8238 32.7763 16.833 32.9372 15.8336 32.9891H15.6773C15.2211 33.0151 14.7409 33.0286 14.2367 33.0297C13.6883 33.0297 13.1289 33.0187 12.518 32.9891C13.7397 34.2587 15.219 35.252 16.8565 35.9023C18.4941 36.5527 20.2519 36.8449 22.0117 36.7594C29.4492 36.7594 35.918 33.9359 39.668 27.6969L10.1289 27.7062Z" fill="#088CB9"/>
<path d="M11.7961 27.7062C12.1748 29.6096 13.2721 31.2939 14.8602 32.4094C16.2729 32.4174 17.6788 32.2125 19.0305 31.8016C19.1061 31.7754 19.189 31.7805 19.261 31.8155C19.3329 31.8505 19.388 31.9126 19.4141 31.9883C19.4402 32.0639 19.4352 32.1468 19.4002 32.2187C19.3652 32.2907 19.303 32.3458 19.2274 32.3719C19.0868 32.4208 18.9404 32.4667 18.7883 32.5094C17.8187 32.7749 16.8235 32.9357 15.8196 32.9891C18.7758 34.5062 23.0508 34.4844 27.9649 32.5953C30.9969 31.3998 33.8297 29.7508 36.3665 27.7047L11.7961 27.7062Z" fill="#039CC7"/>
<path d="M16.3415 21.3609H16.6102V24.1938H16.3415V21.3609ZM15.8258 21.3609H16.1055V24.1938H15.8258V21.3609ZM15.3102 21.3609H15.5899V24.1938H15.3118L15.3102 21.3609ZM14.7946 21.3609H15.0743V24.1938H14.7961L14.7946 21.3609ZM14.279 21.3609H14.5586V24.1938H14.2805L14.279 21.3609ZM13.7743 21.3609H14.043V24.1938H13.7774V21.3609H13.7743ZM13.4915 21.0781H16.8899V24.4781H13.493V21.0781H13.4915ZM20.2649 17.4391H20.5336V20.2719H20.2649V17.4391ZM19.7493 17.4391H20.029V20.2719H19.7493V17.4391ZM19.2336 17.4391H19.5133V20.2719H19.2336V17.4391ZM18.718 17.4391H18.9977V20.2719H18.718V17.4391ZM18.2024 17.4391H18.4805V20.2719H18.2024V17.4391ZM17.6977 17.4391H17.9665V20.2719H17.6977V17.4391ZM17.4149 17.1562H20.8149V20.5563H17.4165L17.4149 17.1562Z" fill="#00ACD3"/>
<path d="M20.2648 21.3609H20.5335V24.1938H20.2648V21.3609ZM19.7492 21.3609H20.0289V24.1938H19.7492V21.3609ZM19.2335 21.3609H19.5132V24.1938H19.2335V21.3609ZM18.7179 21.3609H18.9976V24.1938H18.7179V21.3609ZM18.2023 21.3609H18.4804V24.1938H18.2023V21.3609ZM17.6976 21.3609H17.9664V24.1938H17.6976V21.3609ZM17.4148 21.0781H20.8148V24.4781H17.4164L17.4148 21.0781Z" fill="#26C2EE"/>
<path d="M24.1852 21.3609H24.454V24.1938H24.1852V21.3609ZM23.6696 21.3609H23.9493V24.1938H23.6711L23.6696 21.3609ZM23.154 21.3609H23.4336V24.1938H23.1555L23.154 21.3609ZM22.6383 21.3609H22.9211V24.1938H22.6415V21.3609H22.6383ZM22.1227 21.3609H22.4024V24.1938H22.1227V21.3609ZM21.618 21.3609H21.8868V24.1938H21.618V21.3609ZM21.3352 21.0781H24.7352V24.4781H21.3383V21.0781H21.3352Z" fill="#00ACD3"/>
<path d="M24.1852 17.4391H24.454V20.2719H24.1852V17.4391ZM23.6696 17.4391H23.9493V20.2719H23.6711L23.6696 17.4391ZM23.154 17.4391H23.4336V20.2719H23.1555L23.154 17.4391ZM22.6383 17.4391H22.9211V20.2719H22.6415V17.4391H22.6383ZM22.1227 17.4391H22.4024V20.2719H22.1227V17.4391ZM21.618 17.4391H21.8868V20.2719H21.618V17.4391ZM21.3352 17.1563H24.7352V20.5563H21.3383V17.1547L21.3352 17.1563ZM28.1086 21.3609H28.3774V24.1938H28.1086V21.3609ZM27.593 21.3609H27.8727V24.1938H27.593V21.3609ZM27.0774 21.3609H27.3571V24.1938H27.0774V21.3609ZM26.5618 21.3609H26.8415V24.1938H26.5618V21.3609ZM26.0461 21.3609H26.3258V24.1938H26.0461V21.3609ZM25.5415 21.3609H25.8102V24.1938H25.5415V21.3609ZM25.2649 21.0781H28.6649V24.4781H25.2649V21.0781Z" fill="#26C2EE"/>
<path d="M28.1085 17.4391H28.3773V20.2719H28.1085V17.4391ZM27.5929 17.4391H27.8726V20.2719H27.5929V17.4391ZM27.0773 17.4391H27.357V20.2719H27.0773V17.4391ZM26.5617 17.4391H26.8414V20.2719H26.5617V17.4391ZM26.046 17.4391H26.3257V20.2719H26.046V17.4391ZM25.5414 17.4391H25.8101V20.2719H25.5414V17.4391ZM25.2585 17.1563H28.6585V20.5563H25.2648V17.1547L25.2585 17.1563Z" fill="#00ACD3"/>
<path d="M28.1086 13.5156H28.3774V16.3484H28.1086V13.5156ZM27.593 13.5156H27.8727V16.3484H27.593V13.5156ZM27.0774 13.5156H27.3571V16.3484H27.0774V13.5156ZM26.5618 13.5156H26.8415V16.3484H26.5618V13.5156ZM26.0461 13.5156H26.3258V16.3484H26.0461V13.5156ZM25.5415 13.5156H25.8102V16.3484H25.5415V13.5156ZM25.2649 13.2328H28.6649V16.6328H25.2649V13.2328Z" fill="#26C2EE"/>
<path d="M32.0304 21.3609H32.296V24.1938H32.0304V21.3609ZM31.5148 21.3609H31.7929V24.1938H31.5148V21.3609ZM30.9992 21.3609H31.2789V24.1938H30.9992V21.3609ZM30.4835 21.3609H30.7632V24.1938H30.4835V21.3609ZM29.9679 21.3609H30.2476V24.1938H29.9679V21.3609ZM29.4632 21.3609H29.732V24.1938H29.4632V21.3609ZM29.1804 21.0781H32.5804V24.4781H29.182L29.1804 21.0781Z" fill="#00ACD3"/>
<path d="M20.6023 29.9891C20.7877 29.9891 20.969 30.044 21.1231 30.1471C21.2773 30.2501 21.3975 30.3965 21.4684 30.5678C21.5394 30.7391 21.558 30.9276 21.5218 31.1095C21.4856 31.2913 21.3963 31.4584 21.2652 31.5895C21.1341 31.7206 20.967 31.8099 20.7852 31.846C20.6033 31.8822 20.4148 31.8637 20.2435 31.7927C20.0722 31.7217 19.9258 31.6016 19.8228 31.4474C19.7198 31.2932 19.6648 31.112 19.6648 30.9266C19.6648 30.6779 19.7636 30.4395 19.9394 30.2636C20.1152 30.0878 20.3537 29.9891 20.6023 29.9891Z" fill="#D5EEF2"/>
<path d="M20.6025 30.2547C20.686 30.2534 20.7688 30.2688 20.8462 30.3C20.8098 30.3211 20.7787 30.3504 20.7555 30.3856C20.7322 30.4207 20.7174 30.4607 20.7122 30.5025C20.7069 30.5443 20.7114 30.5868 20.7253 30.6266C20.7392 30.6664 20.7621 30.7024 20.7922 30.7319C20.8223 30.7614 20.8588 30.7835 20.8988 30.7965C20.9389 30.8096 20.9814 30.8132 21.0231 30.8071C21.0648 30.8009 21.1045 30.7853 21.1392 30.7613C21.1738 30.7373 21.2024 30.7056 21.2228 30.6687C21.278 30.8017 21.2891 30.9489 21.2544 31.0886C21.2197 31.2283 21.141 31.3532 21.0299 31.4448C20.9188 31.5365 20.7813 31.59 20.6375 31.5975C20.4937 31.605 20.3513 31.5662 20.2313 31.4867C20.1113 31.4071 20.0199 31.2912 19.9708 31.1558C19.9217 31.0205 19.9173 30.873 19.9584 30.735C19.9994 30.597 20.0837 30.4758 20.1989 30.3893C20.314 30.3029 20.4538 30.2557 20.5978 30.2547M4.01499 28.0453H47.64C46.69 27.8047 44.6353 27.4797 44.9728 26.2344C43.2462 28.2328 39.0806 27.6406 38.0291 26.6516C36.8587 28.35 30.0431 27.7047 29.5681 26.3812C28.1009 28.1 23.5525 28.1 22.0853 26.3812C21.6166 27.7047 14.7947 28.35 13.6244 26.6516C12.5728 27.6375 8.40874 28.2328 6.68062 26.2344C7.01968 27.4844 4.96187 27.8047 4.01343 28.0453" fill="#3A4E55"/>
<path d="M23.0945 36.7469C21.177 35.9274 19.6392 34.4147 18.7883 32.5109C17.7736 32.7801 16.7325 32.9373 15.6836 32.9797C15.2294 33.0047 14.7518 33.0177 14.2508 33.0188C13.6737 33.0188 13.0654 33.0016 12.4258 32.9672C13.6597 34.2524 15.156 35.2568 16.8128 35.9119C18.4696 36.5671 20.2481 36.8577 22.0273 36.7641C22.3857 36.7641 22.7414 36.7573 23.0945 36.7438" fill="#C0DBE1"/>
<path d="M19.6508 34.0203C19.3101 33.5495 19.021 33.0435 18.7883 32.5109C17.7736 32.7801 16.7325 32.9373 15.6836 32.9797C16.9185 33.6002 18.2702 33.9537 19.6508 34.0172" fill="#D5EEF2"/>
</svg>
