<svg width="31" height="50" viewBox="0 0 31 50" fill="none" xmlns="http://www.w3.org/2000/svg">
<g clip-path="url(#clip0_418_67)">
<path d="M8.34741 47.5001C12.4874 47.5001 15.8474 44.1401 15.8474 40.0001V32.5001H8.34741C4.20741 32.5001 0.847412 35.8601 0.847412 40.0001C0.847412 44.1401 4.20741 47.5001 8.34741 47.5001Z" fill="#0ACF83"/>
<path d="M0.847412 25.0001C0.847412 20.8601 4.20741 17.5001 8.34741 17.5001H15.8474V32.5001H8.34741C4.20741 32.5001 0.847412 29.1401 0.847412 25.0001Z" fill="#A259FF"/>
<path d="M0.847412 10.0001C0.847412 5.86012 4.20741 2.50012 8.34741 2.50012H15.8474V17.5001H8.34741C4.20741 17.5001 0.847412 14.1401 0.847412 10.0001Z" fill="#F24E1E"/>
<path d="M15.8474 2.50012H23.3474C27.4874 2.50012 30.8474 5.86012 30.8474 10.0001C30.8474 14.1401 27.4874 17.5001 23.3474 17.5001H15.8474V2.50012Z" fill="#FF7262"/>
<path d="M30.8474 25.0001C30.8474 29.1401 27.4874 32.5001 23.3474 32.5001C19.2074 32.5001 15.8474 29.1401 15.8474 25.0001C15.8474 20.8601 19.2074 17.5001 23.3474 17.5001C27.4874 17.5001 30.8474 20.8601 30.8474 25.0001Z" fill="#1ABCFE"/>
</g>
<defs>
<clipPath id="clip0_418_67">
<rect width="30.006" height="45" fill="white" transform="translate(0.844482 2.50012)"/>
</clipPath>
</defs>
</svg>
