<svg width="51" height="50" viewBox="0 0 51 50" fill="none" xmlns="http://www.w3.org/2000/svg">
<path d="M46.8946 23.0517L27.793 3.95013C27.5317 3.68793 27.2212 3.47989 26.8794 3.33793C26.5375 3.19598 26.171 3.12291 25.8008 3.12291C25.4306 3.12291 25.0641 3.19598 24.7223 3.33793C24.3804 3.47989 24.0699 3.68793 23.8086 3.95013L19.8414 7.91731L24.8727 12.9486C25.466 12.7467 26.1041 12.7155 26.7142 12.8586C27.3244 13.0016 27.8821 13.3132 28.3237 13.7579C28.7654 14.2025 29.0733 14.7622 29.2124 15.3733C29.3514 15.9844 29.316 16.6222 29.1102 17.2142L33.9539 22.0579C34.678 21.8092 35.4653 21.8161 36.1849 22.0774C36.9045 22.3388 37.5128 22.8388 37.9084 23.4942C38.3041 24.1496 38.4632 24.9208 38.3593 25.6792C38.2554 26.4377 37.8947 27.1377 37.3373 27.6625C36.78 28.1873 36.0596 28.5053 35.2963 28.5635C34.5329 28.6216 33.7727 28.4165 33.1423 27.9822C32.5118 27.5479 32.0492 26.9107 31.8316 26.1767C31.6139 25.4427 31.6543 24.6563 31.9461 23.9486L27.4227 19.4251V31.3267C28.1079 31.6662 28.6561 32.2302 28.976 32.9248C29.2959 33.6194 29.3682 34.4026 29.1808 35.144C28.9934 35.8854 28.5577 36.5402 27.9461 36.9994C27.3346 37.4586 26.5842 37.6944 25.82 37.6675C25.0557 37.6406 24.3238 37.3527 23.746 36.8518C23.1682 36.3508 22.7795 35.667 22.6446 34.9143C22.5098 34.1616 22.6368 33.3853 23.0047 32.7149C23.3726 32.0445 23.9591 31.5204 24.6664 31.2298V19.2189C24.2572 19.051 23.8852 18.8038 23.572 18.4915C23.2587 18.1792 23.0103 17.808 22.8411 17.3993C22.6719 16.9906 22.5852 16.5525 22.5861 16.1102C22.587 15.6678 22.6753 15.23 22.8461 14.822L17.893 9.86575L4.79456 22.9689C4.53212 23.2302 4.32388 23.5408 4.18179 23.8828C4.0397 24.2248 3.96655 24.5915 3.96655 24.9618C3.96655 25.3322 4.0397 25.6989 4.18179 26.0409C4.32388 26.3829 4.53212 26.6935 4.79456 26.9548L23.8961 46.0501C24.1574 46.3123 24.4679 46.5204 24.8098 46.6623C25.1516 46.8043 25.5181 46.8773 25.8883 46.8773C26.2585 46.8773 26.625 46.8043 26.9669 46.6623C27.3087 46.5204 27.6192 46.3123 27.8805 46.0501L46.8946 27.0314C47.157 26.7701 47.3652 26.4595 47.5073 26.1175C47.6494 25.7755 47.7226 25.4088 47.7226 25.0384C47.7226 24.6681 47.6494 24.3014 47.5073 23.9593C47.3652 23.6173 47.157 23.3068 46.8946 23.0454" fill="#DD4C35"/>
</svg>
