<svg width="51" height="50" viewBox="0 0 51 50" fill="none" xmlns="http://www.w3.org/2000/svg">
<path fill-rule="evenodd" clip-rule="evenodd" d="M25.8445 3.12512C20.6512 3.12581 15.6275 4.97415 11.6722 8.33948C7.71679 11.7048 5.08774 16.3676 4.25531 21.4938C3.42287 26.6199 4.44135 31.875 7.12856 36.3191C9.81578 40.7631 13.9964 44.1061 18.9226 45.7501C20.0164 45.9532 20.4851 45.2814 20.4851 44.7032V40.9845C14.407 42.297 13.1258 38.047 13.1258 38.047C12.6983 36.7077 11.7988 35.5693 10.5945 34.8439C8.61014 33.5001 10.7508 33.5157 10.7508 33.5157C11.4439 33.6137 12.1055 33.8687 12.685 34.2613C13.2645 34.654 13.7466 35.1739 14.0945 35.7814C14.6997 36.8669 15.7113 37.6676 16.9068 38.0075C18.1022 38.3474 19.3837 38.1986 20.4695 37.5939C20.5577 36.4852 21.0465 35.4466 21.8445 34.672C17.0008 34.1095 11.8914 32.2345 11.8914 23.8595C11.856 21.6843 12.6621 19.5795 14.1414 17.9845C13.4718 16.1004 13.5501 14.0313 14.3601 12.2032C14.3601 12.2032 16.1883 11.6095 20.3758 14.4376C23.9562 13.461 27.7328 13.461 31.3133 14.4376C35.4851 11.6095 37.3133 12.2032 37.3133 12.2032C38.1233 14.0313 38.2016 16.1004 37.532 17.9845C39.0113 19.5795 39.8174 21.6843 39.782 23.8595C39.782 32.2657 34.6726 34.1095 29.7976 34.6564C30.3199 35.1857 30.7226 35.8208 30.9786 36.5189C31.2347 37.2169 31.3381 37.9618 31.282 38.7032V44.7032C31.282 45.422 31.6726 45.9689 32.8445 45.7501C37.7772 44.1041 41.9622 40.7546 44.649 36.3024C47.3358 31.8502 48.3486 26.5865 47.5059 21.4551C46.6633 16.3237 44.0201 11.6604 40.0506 8.30132C36.081 4.94224 31.0446 3.10715 25.8445 3.12512Z" fill="black"/>
</svg>
