<svg width="50" height="50" viewBox="0 0 50 50" fill="none" xmlns="http://www.w3.org/2000/svg">
<path d="M7.47021 35.5406L25.3624 4.55313L26.9687 5.47969L9.07803 36.4688L7.47021 35.5406Z" fill="#E10098"/>
<path d="M7.10156 33.0656H42.8859V34.9203H7.10156V33.0656Z" fill="#E10098"/>
<path d="M7.81104 34.1062L8.7376 32.5L26.636 42.8344L25.7079 44.4406L7.81104 34.1062ZM23.3595 7.17187L24.2876 5.56718L42.186 15.9016L41.2579 17.5078L23.3595 7.17187Z" fill="#E10098"/>
<path d="M7.81567 15.8969L25.7125 5.5625L26.6407 7.16875L8.74224 17.5031L7.81567 15.8969Z" fill="#E10098"/>
<path d="M23.036 5.48126L24.6423 4.55313L42.5329 35.5422L40.9282 36.4688L23.036 5.48126ZM8.52197 14.6656H10.3767V35.3344H8.52197V14.6656Z" fill="#E10098"/>
<path d="M39.625 14.6656H41.4797V35.3344H39.625V14.6656Z" fill="#E10098"/>
<path d="M24.5845 42.2531L40.1501 33.2656L40.961 34.6687L25.3938 43.6562L24.5845 42.2531Z" fill="#E10098"/>
<path d="M43.9374 35.9375C43.5518 36.6074 42.9762 37.1479 42.2834 37.4906C41.5905 37.8332 40.8116 37.9626 40.0451 37.8623C39.2787 37.7621 38.5593 37.4367 37.9778 36.9274C37.3964 36.4181 36.9792 35.7477 36.7789 35.0012C36.5786 34.2546 36.6044 33.4654 36.8528 32.7335C37.1013 32.0015 37.5613 31.3598 38.1746 30.8894C38.788 30.419 39.5271 30.1412 40.2984 30.0911C41.0698 30.0409 41.8386 30.2208 42.5077 30.6078C43.4032 31.1258 44.0566 31.9778 44.3246 32.977C44.5926 33.9762 44.4534 35.0409 43.9374 35.9375ZM12.8124 17.9687C12.4268 18.6387 11.8512 19.1792 11.1584 19.5218C10.4655 19.8645 9.68656 19.9938 8.92013 19.8936C8.15371 19.7933 7.43425 19.468 6.85283 18.9587C6.27141 18.4493 5.85416 17.779 5.65389 17.0324C5.45363 16.2858 5.47935 15.4967 5.72781 14.7647C5.97627 14.0328 6.43629 13.391 7.04964 12.9206C7.663 12.4503 8.40211 12.1724 9.17344 12.1223C9.94477 12.0722 10.7136 12.252 11.3827 12.6391C12.2782 13.1571 12.9316 14.0091 13.1996 15.0083C13.4676 16.0074 13.3284 17.0721 12.8124 17.9687ZM6.06239 35.9375C5.67536 35.2684 5.49552 34.4996 5.54564 33.7282C5.59577 32.9569 5.8736 32.2178 6.34398 31.6044C6.81435 30.9911 7.45612 30.5311 8.18806 30.2826C8.91999 30.0341 9.70918 30.0084 10.4557 30.2087C11.2023 30.409 11.8727 30.8262 12.382 31.4076C12.8913 31.989 13.2167 32.7085 13.3169 33.4749C13.4172 34.2414 13.2878 35.0203 12.9452 35.7131C12.6025 36.406 12.062 36.9816 11.3921 37.3672C10.4955 37.8832 9.43077 38.0224 8.4316 37.7544C7.43243 37.4864 6.58038 36.833 6.06239 35.9375ZM37.1874 17.9687C36.8004 17.2997 36.6205 16.5308 36.6706 15.7595C36.7208 14.9882 36.9986 14.249 37.469 13.6357C37.9394 13.0223 38.5811 12.5623 39.3131 12.3139C40.045 12.0654 40.8342 12.0397 41.5807 12.2399C42.3273 12.4402 42.9977 12.8575 43.507 13.4389C44.0163 14.0203 44.3417 14.7398 44.4419 15.5062C44.5422 16.2726 44.4128 17.0515 44.0702 17.7444C43.7275 18.4373 43.187 19.0129 42.5171 19.3984C41.6205 19.9144 40.5558 20.0537 39.5566 19.7857C38.5574 19.5176 37.7054 18.8642 37.1874 17.9687ZM24.9999 46.875C24.2273 46.875 23.4721 46.6459 22.8297 46.2167C22.1873 45.7874 21.6866 45.1774 21.391 44.4636C21.0953 43.7498 21.018 42.9644 21.1687 42.2067C21.3194 41.4489 21.6915 40.7529 22.2378 40.2066C22.7841 39.6603 23.4801 39.2883 24.2378 39.1376C24.9956 38.9868 25.781 39.0642 26.4947 39.3598C27.2085 39.6555 27.8186 40.1562 28.2478 40.7985C28.677 41.4409 28.9061 42.1962 28.9061 42.9687C28.9076 43.4821 28.8075 43.9907 28.6117 44.4653C28.4159 44.9399 28.1283 45.3711 27.7652 45.7341C27.4022 46.0971 26.971 46.3848 26.4965 46.5806C26.0219 46.7764 25.5133 46.8764 24.9999 46.875ZM24.9999 10.9234C24.2273 10.9234 23.4721 10.6943 22.8297 10.2651C22.1873 9.83589 21.6866 9.22581 21.391 8.51204C21.0953 7.79827 21.018 7.01285 21.1687 6.25511C21.3194 5.49737 21.6915 4.80135 22.2378 4.25505C22.7841 3.70875 23.4801 3.33671 24.2378 3.18599C24.9956 3.03527 25.781 3.11262 26.4947 3.40828C27.2085 3.70393 27.8186 4.20461 28.2478 4.84699C28.677 5.48937 28.9061 6.2446 28.9061 7.01718C28.9076 7.53056 28.8075 8.03917 28.6117 8.51375C28.4159 8.98833 28.1283 9.41952 27.7652 9.78254C27.4022 10.1456 26.971 10.4332 26.4965 10.629C26.0219 10.8248 25.5133 10.9249 24.9999 10.9234Z" fill="#E10098"/>
</svg>
