<svg width="50" height="50" viewBox="0 0 50 50" fill="none" xmlns="http://www.w3.org/2000/svg">
<path d="M10.7997 40.7514L7.63989 5.3125H42.3602L39.1961 40.7458L24.979 44.6875L10.7997 40.7514Z" fill="#E44F26"/>
<path d="M25 41.6753L36.4891 38.4902L39.1919 8.21078H25V41.6753Z" fill="#F1662A"/>
<path d="M25 21.3536H19.2484L18.8519 16.9028H25V12.5561H14.1016L14.2056 13.7233L15.273 25.7003H25V21.3536ZM25 32.6416L24.9803 32.6472L20.14 31.3408L19.8306 27.8744H15.467L16.0759 34.6975L24.9803 37.1697L25 37.1641V32.6416Z" fill="#EBEBEB"/>
<path d="M24.9846 21.3536V25.7003H30.3368L29.8334 31.338L24.9846 32.6458V37.1683L33.896 34.6975L33.9607 33.9634L34.9816 22.5208L35.0885 21.3536H24.9846ZM24.9846 12.5561V16.9028H35.4837L35.5709 15.9269L35.7692 13.7233L35.8732 12.5561H24.9846Z" fill="white"/>
</svg>
