<svg width="50" height="50" viewBox="0 0 50 50" fill="none" xmlns="http://www.w3.org/2000/svg">
<g clip-path="url(#clip0_415_23)">
<path d="M5 5H45V45H5V5Z" fill="#F7DF1E"/>
<path d="M15.5177 38.4269L18.5787 36.5744C19.1693 37.6214 19.7065 38.5073 20.9951 38.5073C22.2302 38.5073 23.0091 38.0242 23.0091 36.1448V23.3639H26.768V36.198C26.768 40.0913 24.4859 41.8634 21.1562 41.8634C18.1491 41.8634 16.4037 40.3061 15.5176 38.4266M28.8098 38.0241L31.8704 36.252C32.6762 37.5678 33.7234 38.5344 35.5759 38.5344C37.1335 38.5344 38.1266 37.7556 38.1266 36.6816C38.1266 35.3928 37.1063 34.9363 35.3879 34.1847L34.4484 33.7816C31.7363 32.6273 29.9374 31.1773 29.9374 28.1164C29.9374 25.297 32.0854 23.1489 35.4418 23.1489C37.8315 23.1489 39.5499 23.9814 40.7849 26.1562L37.858 28.0359C37.2135 26.8814 36.5157 26.425 35.4416 26.425C34.3407 26.425 33.6426 27.1231 33.6426 28.0359C33.6426 29.1636 34.3407 29.6203 35.9516 30.3184L36.8913 30.7211C40.0866 32.0906 41.8855 33.4867 41.8855 36.628C41.8855 40.0114 39.2274 41.8639 35.6563 41.8639C32.1659 41.8639 29.9104 40.1992 28.8096 38.0242" fill="black"/>
</g>
<defs>
<clipPath id="clip0_415_23">
<rect width="40" height="40" fill="white" transform="translate(5 5)"/>
</clipPath>
</defs>
</svg>
