<svg width="46" height="50" viewBox="0 0 46 50" fill="none" xmlns="http://www.w3.org/2000/svg">
<g clip-path="url(#clip0_929_24)">
<path d="M42.9838 24.5512C42.9838 21.988 40.9057 19.9099 38.3425 19.9099C38.1776 19.91 38.0149 19.9186 37.8545 19.9357L44.2294 1.13358H17.1382L23.5043 19.9193C23.4104 19.9133 23.3163 19.9102 23.2221 19.9101C20.6589 19.9101 18.5808 21.9878 18.5808 24.5514C18.5808 26.6233 19.9388 28.3776 21.8128 28.9744C20.823 30.6889 19.5774 32.2332 18.1633 33.5675C16.2403 35.3815 14.0396 36.7571 11.6594 37.6046C8.82551 36.1488 7.48734 32.9111 8.69476 30.0724C8.83116 29.7518 8.97038 29.4269 9.10342 29.1034C11.1564 28.6242 12.6865 26.7838 12.6865 24.5846C12.6865 22.0212 10.6084 19.9433 8.04494 19.9433C5.48151 19.9433 3.4036 22.0212 3.4036 24.5846C3.4036 26.1565 4.18558 27.5451 5.38116 28.3846C4.2324 31.0002 2.5437 33.7376 2.01756 36.9103C1.38699 40.7124 2.01544 44.7484 5.30395 47.0277C12.9626 52.3359 21.276 43.7371 30.0414 41.5754C33.2181 40.7922 36.7052 40.9184 39.504 39.2975C41.6057 38.0802 42.9914 36.0627 43.3845 33.7979C43.7732 31.5604 43.2068 29.3327 41.9043 27.5263C42.603 26.6926 42.9853 25.6391 42.9838 24.5512Z" fill="#99425B"/>
<path d="M42.2678 33.6039C41.9265 35.5703 40.712 37.2878 38.936 38.3166C37.2803 39.2754 35.2964 39.5617 33.1957 39.8645C32.0705 40.0267 30.9068 40.1947 29.7701 40.4749C26.7644 41.2161 23.8531 42.6622 21.0379 44.0606C15.4037 46.8592 10.5379 49.2758 5.94995 46.0959C2.58918 43.7668 2.7443 39.4572 3.13582 37.0958C3.49872 34.9078 4.47981 32.8928 5.4284 30.9442C5.59001 30.613 5.75032 30.2812 5.90932 29.9488C6.38752 30.1398 6.88925 30.2657 7.40101 30.323C6.43529 33.5101 7.95402 36.9754 11.1415 38.6129L11.5779 38.8371L12.0397 38.6726C14.5597 37.7751 16.8818 36.3352 18.9413 34.3919C20.2726 33.1359 21.4173 31.7463 22.3581 30.2615C22.6441 30.3045 22.933 30.3262 23.2222 30.3263C26.1478 30.3263 28.5705 28.1392 28.9454 25.3145C30.1429 25.2707 31.4148 25.2703 32.6192 25.3141C32.9938 28.1392 35.4167 30.3265 38.3424 30.3265C39.5657 30.3265 40.7003 29.9431 41.6351 29.2919C42.2841 30.6203 42.5263 32.115 42.2678 33.6039ZM8.04518 21.0769C9.97946 21.0769 11.553 22.6505 11.553 24.5848C11.5535 25.2543 11.3612 25.9098 10.9991 26.473C10.416 27.3823 9.42487 28.0057 8.28617 28.0834C8.20649 28.0887 8.1261 28.0926 8.04518 28.0926C7.61409 28.0926 7.20119 28.014 6.81939 27.8712C6.05048 27.582 5.40658 27.0336 4.99872 26.3205C4.6957 25.7923 4.53657 25.1938 4.53723 24.5848C4.53723 22.6505 6.11091 21.0769 8.04518 21.0769ZM19.7146 24.5514C19.7146 22.794 21.0137 21.3348 22.7017 21.0825C22.8718 21.0567 23.0454 21.0438 23.2224 21.0436C24.347 21.0436 25.3482 21.5763 25.9902 22.4018C26.1509 22.6077 26.2883 22.8308 26.3998 23.067C26.618 23.5314 26.7308 24.0383 26.7302 24.5514C26.7302 24.8318 26.6962 25.1044 26.6339 25.3659C26.292 26.797 25.0717 27.891 23.5763 28.0415C23.46 28.0533 23.3421 28.0592 23.2224 28.0592C22.5477 28.0598 21.8873 27.8645 21.3213 27.4972C20.3556 26.8716 19.7146 25.7852 19.7146 24.5514ZM34.3551 20.38C33.5916 21.1085 33.0422 22.0322 32.7666 23.0509C31.4444 23.0022 30.1209 23.0022 28.7987 23.0509C28.5019 21.9498 27.8867 20.9784 27.059 20.2406L30.6888 12.9011L34.3551 20.38ZM18.7194 2.26749H42.6482L36.9964 18.9362C36.7533 18.9945 36.5142 19.0685 36.2807 19.158L30.6977 7.76873L25.0987 19.0899C24.8546 19.0062 24.6052 18.9389 24.3521 18.8887L18.7194 2.26749ZM41.8501 24.5516C41.8501 24.9032 41.7977 25.2428 41.701 25.5634C41.4718 26.3184 40.9956 26.9745 40.3489 27.4265C39.7611 27.839 39.0604 28.06 38.3424 28.0594C36.7227 28.0594 35.3565 26.9557 34.9547 25.461C34.8749 25.1644 34.8345 24.8587 34.8346 24.5516C34.8346 24.0721 34.9314 23.6148 35.1063 23.1982C35.1967 22.9851 35.3079 22.7815 35.4381 22.5901C36.0694 21.6583 37.1346 21.0438 38.3424 21.0438C38.4531 21.0439 38.5625 21.0492 38.6706 21.0597C40.4515 21.2256 41.8501 22.7279 41.8501 24.5516ZM44.1176 24.5516C44.1176 21.7322 42.0862 19.3797 39.4106 18.8772L45.8107 0H15.5572L21.9674 18.9154C19.3848 19.4901 17.4475 21.7981 17.4475 24.5514C17.4475 26.6189 18.5401 28.4348 20.1775 29.4553C19.3899 30.6288 18.456 31.733 17.3856 32.7429C15.6881 34.3442 13.7971 35.5587 11.7584 36.3578C9.7049 35.0678 8.83688 32.6352 9.73829 30.5161L9.80897 30.35L9.94147 30.0383C12.197 29.2516 13.8201 27.1049 13.8201 24.5848C13.8201 21.4004 11.2295 18.8097 8.04518 18.8097C4.86073 18.8097 2.2701 21.4004 2.2701 24.5848C2.2701 26.192 2.93087 27.6475 3.99412 28.6956C3.79582 29.1157 3.59452 29.5345 3.39024 29.9518C2.41798 31.9484 1.31621 34.2115 0.899425 36.7247C0.071863 41.7159 1.40685 45.7058 4.65861 47.9594C6.63176 49.3269 8.63564 49.8647 10.6521 49.8647C14.4489 49.8647 18.2899 47.9571 22.0466 46.091C24.7521 44.7474 27.5498 43.3578 30.3132 42.6761C31.3415 42.4226 32.3994 42.27 33.5196 42.1085C35.7409 41.788 38.0378 41.4567 40.0724 40.2784C42.4309 38.9124 44.0452 36.6208 44.5017 33.9919C44.8936 31.7348 44.422 29.4742 43.2719 27.5569C43.826 26.6524 44.1187 25.6121 44.1176 24.5514" fill="white"/>
</g>
<defs>
<clipPath id="clip0_929_24">
<rect width="45.23" height="50" fill="white" transform="translate(0.659912)"/>
</clipPath>
</defs>
</svg>
