<svg width="51" height="50" viewBox="0 0 51 50" fill="none" xmlns="http://www.w3.org/2000/svg">
<path fill-rule="evenodd" clip-rule="evenodd" d="M13.8384 10.7266C13.4245 10.7252 13.0122 10.7778 12.6118 10.8828V10.9375H12.6712C12.9579 11.3703 13.2776 11.7804 13.6274 12.1641C13.8681 12.6422 14.0774 13.1187 14.3165 13.5969L14.3759 13.5359C14.5978 13.3597 14.7716 13.1302 14.8809 12.8687C14.9901 12.6073 15.0314 12.3224 15.0009 12.0406C14.87 11.8388 14.7501 11.6302 14.6415 11.4156C14.4618 11.1172 14.0728 10.9672 13.8337 10.7281" fill="#5D87A1"/>
<path fill-rule="evenodd" clip-rule="evenodd" d="M43.518 36.8016C41.547 36.6631 39.5693 36.9487 37.718 37.6391C37.2695 37.8187 36.5539 37.8187 36.4914 38.3859C36.732 38.625 36.7602 39.0109 36.9711 39.3437C37.3803 40.0366 37.9063 40.6535 38.5258 41.1672C39.1508 41.6453 39.7758 42.1219 40.4399 42.5406C41.6039 43.2609 42.9211 43.6781 44.0555 44.3953C44.7149 44.8141 45.3711 45.3516 46.0305 45.8016C46.3586 46.0406 46.5664 46.4266 46.9852 46.5828V46.4922C46.8621 46.1601 46.71 45.8396 46.5305 45.5344C46.232 45.2375 45.932 44.9672 45.632 44.6687C44.7556 43.5098 43.707 42.4918 42.5227 41.65C41.5649 40.9906 39.4711 40.0875 39.0852 38.9937L39.0242 38.9328C39.7251 38.8335 40.4158 38.6725 41.0883 38.4516C42.1039 38.1828 43.0305 38.2437 44.0758 37.9828C44.5555 37.8625 45.4227 37.5641 45.4227 37.5641V37.0953C44.8883 36.5641 44.5055 35.8531 43.943 35.3516C42.4127 34.0157 40.7818 32.7996 39.0649 31.7141C38.1477 31.1219 36.9649 30.7406 35.9883 30.2359C35.6352 30.0578 35.0508 29.9703 34.8367 29.6734C34.351 28.9609 33.9445 28.1975 33.6242 27.3969C32.7501 25.7138 31.9416 23.9974 31.2008 22.2516C30.7643 21.0997 30.2608 19.9744 29.693 18.8812C26.9529 14.2226 22.9978 10.3966 18.2508 7.8125C17.053 7.23274 15.7796 6.82456 14.468 6.6C13.7274 6.56875 12.9899 6.51094 12.2508 6.48281C11.7737 6.17026 11.3199 5.82351 10.893 5.44531C9.20236 4.375 4.85861 2.075 3.61486 5.12031C2.81798 7.04375 4.79923 8.93437 5.47892 9.91094C6.05204 10.5995 6.557 11.342 6.98673 12.1281C7.19455 12.6312 7.25392 13.1641 7.45548 13.6906C7.88921 15.0424 8.40421 16.3666 8.99767 17.6562C9.31508 18.2936 9.68073 18.9058 10.0914 19.4875C10.3305 19.8141 10.743 19.9562 10.832 20.4953C10.5044 21.1996 10.2751 21.9457 10.1508 22.7125C9.6343 24.3436 9.44422 26.0605 9.59141 27.765C9.73859 29.4696 10.2202 31.1285 11.0086 32.6469C11.4774 33.3859 12.6055 35.0125 14.1133 34.3906C15.443 33.8594 15.1477 32.1734 15.532 30.6969C15.6195 30.3391 15.5617 30.1047 15.7383 29.8687V30.1562C15.7383 30.1562 16.493 31.8141 16.868 32.6562C17.8878 34.2016 19.1547 35.5688 20.618 36.7031C21.1968 37.2085 21.6631 37.8297 21.9867 38.5266V39.0625H22.6539C22.64 38.8209 22.573 38.5852 22.4577 38.3724C22.3424 38.1596 22.1816 37.9748 21.9867 37.8312C21.4396 37.2681 20.9385 36.662 20.4883 36.0187C19.2653 34.2769 18.1867 32.4379 17.2633 30.5203C16.7945 29.5828 16.3992 28.5547 16.0242 27.6187C15.8524 27.2578 15.8524 26.7125 15.5633 26.525C15.0295 27.1565 14.5664 27.8444 14.182 28.5766C13.7155 30.0563 13.4439 31.5906 13.3742 33.1406C13.2602 33.1719 13.3164 33.1406 13.2602 33.2C12.3399 32.9578 12.0227 31.9625 11.6758 31.1187C10.7797 28.5165 10.6893 25.7044 11.4164 23.05C11.6164 22.4172 12.4836 20.4234 12.1367 19.8187C11.9633 19.2422 11.3867 18.9125 11.0711 18.4578C10.6682 17.8461 10.3214 17.1992 10.0352 16.525C9.34923 14.8437 9.00236 12.9687 8.25548 11.275C7.84204 10.4604 7.36065 9.68213 6.81642 8.94844C6.21441 8.21552 5.68338 7.42709 5.23048 6.59375C5.08673 6.26094 4.88517 5.71719 5.11486 5.35469C5.13036 5.25399 5.17825 5.16109 5.25127 5.09004C5.32429 5.019 5.41847 4.97367 5.51955 4.96094C5.89142 4.62969 6.95861 5.05156 7.33205 5.23281C8.33573 5.62793 9.29174 6.13477 10.182 6.74375C10.5852 7.04687 11.5352 7.81406 11.5352 7.81406H11.8164C12.7727 8.02187 13.8477 7.87187 14.7477 8.14219C16.263 8.64733 17.7092 9.34022 19.0524 10.2047C23.0112 12.7284 26.2296 16.2573 28.3789 20.4312C28.7383 21.1172 28.8899 21.7469 29.218 22.4625C29.843 23.9312 30.6242 25.4312 31.2492 26.8594C31.8006 28.2723 32.5137 29.6167 33.3742 30.8656C33.8211 31.4906 35.6164 31.8219 36.4242 32.15C37.1258 32.3927 37.8142 32.6717 38.4867 32.9859C39.5039 33.6109 40.518 34.3312 41.4758 35.0172C41.9524 35.3766 43.4477 36.1234 43.5383 36.7219" fill="#00758F"/>
</svg>
