<svg width="44" height="50" viewBox="0 0 44 50" fill="none" xmlns="http://www.w3.org/2000/svg">
<g clip-path="url(#clip0_929_35)">
<path d="M0.354874 37.4892C0.581678 37.8924 0.909341 38.195 1.31278 38.4218L20.7221 49.6138C21.5288 50.0926 22.5117 50.0926 23.2932 49.6138L42.7026 38.4218C43.5093 37.9682 43.9882 37.111 43.9882 36.1784V13.7945C43.9882 12.8619 43.5093 12.0048 42.7026 11.5512L23.2932 0.359111C22.4867 -0.119927 21.5035 -0.119927 20.7221 0.359111L1.31295 11.5512C0.480819 12.0048 0.00195312 12.8619 0.00195312 13.7945V36.2034C0.00195312 36.6574 0.102812 37.0859 0.354874 37.4892Z" fill="#009639"/>
<path d="M15.7814 33.5316C15.7828 33.8597 15.7192 34.1848 15.5943 34.4882C15.4694 34.7916 15.2856 35.0673 15.0536 35.2993C14.8216 35.5313 14.5459 35.7151 14.2425 35.84C13.9391 35.9649 13.614 36.0285 13.2859 36.0271C12.9578 36.0285 12.6327 35.9649 12.3293 35.84C12.0259 35.715 11.7503 35.5313 11.5183 35.2992C11.2863 35.0672 11.1026 34.7916 10.9777 34.4882C10.8528 34.1848 10.7892 33.8597 10.7905 33.5316V16.4161C10.7905 15.0801 11.9753 13.9962 13.6136 13.9962C14.7985 13.9962 16.1849 14.4751 17.0167 15.5086L17.7727 16.4161L28.2086 28.8935V16.4665C28.2072 16.1384 28.2708 15.8132 28.3957 15.5099C28.5206 15.2065 28.7044 14.9308 28.9364 14.6988C29.1684 14.4668 29.4441 14.283 29.7475 14.1581C30.0509 14.0332 30.376 13.9696 30.7041 13.971C31.0322 13.9696 31.3573 14.0332 31.6607 14.1581C31.9641 14.2831 32.2397 14.4668 32.4717 14.6988C32.7037 14.9309 32.8875 15.2065 33.0124 15.5099C33.1373 15.8133 33.2009 16.1384 33.1995 16.4665V33.5821C33.1995 34.918 32.0148 36.0019 30.3765 36.0019C29.1916 36.0019 27.8052 35.523 26.9734 34.4895L15.7814 21.1297V33.5316Z" fill="white"/>
</g>
<defs>
<clipPath id="clip0_929_35">
<rect width="43.99" height="50" fill="white"/>
</clipPath>
</defs>
</svg>
