<svg width="51" height="50" viewBox="0 0 51 50" fill="none" xmlns="http://www.w3.org/2000/svg">
<path d="M25.1118 46.875C24.5216 46.8752 23.9418 46.72 23.4306 46.425L18.0806 43.2578C17.2821 42.8109 17.6712 42.6531 17.9353 42.5609C18.7844 42.2986 19.5975 41.9312 20.3556 41.4672C20.419 41.4378 20.4889 41.4252 20.5586 41.4304C20.6284 41.4355 20.6956 41.4584 20.754 41.4969L24.865 43.9391C24.9415 43.9796 25.0268 44.0007 25.1134 44.0007C25.2 44.0007 25.2853 43.9796 25.3618 43.9391L41.3931 34.6859C41.4681 34.641 41.5301 34.5773 41.5732 34.5012C41.6162 34.425 41.6386 34.339 41.6384 34.2516V15.7422C41.6384 15.6534 41.6156 15.566 41.5721 15.4886C41.5286 15.4111 41.4659 15.3462 41.39 15.3L25.3587 6.05469C25.2831 6.01212 25.1978 5.98975 25.111 5.98975C25.0243 5.98975 24.939 6.01212 24.8634 6.05469L8.84151 15.3031C8.76509 15.3483 8.70163 15.4125 8.65729 15.4894C8.61294 15.5663 8.58921 15.6534 8.58839 15.7422V34.2438C8.58861 34.331 8.61202 34.4166 8.65622 34.4919C8.70043 34.5671 8.76384 34.6292 8.83995 34.6719L13.2368 37.2094C15.6196 38.4 17.079 36.9969 17.079 35.5875V17.3203C17.079 17.196 17.1284 17.0768 17.2163 16.9889C17.3042 16.901 17.4234 16.8516 17.5478 16.8516H19.579C19.7033 16.8516 19.8226 16.901 19.9105 16.9889C19.9984 17.0768 20.0478 17.196 20.0478 17.3203V35.5891C20.0478 38.7688 18.3165 40.5891 15.3009 40.5891C13.9999 40.6117 12.7193 40.2638 11.6087 39.5859L7.39464 37.1688C6.88306 36.8708 6.45857 36.4439 6.16356 35.9307C5.86854 35.4174 5.71332 34.8358 5.71339 34.2438V15.7422C5.71187 15.1493 5.86643 14.5664 6.16155 14.0521C6.45667 13.5379 6.88194 13.1103 7.39464 12.8125L23.4275 3.55625C23.9439 3.2737 24.5231 3.12561 25.1118 3.12561C25.7005 3.12561 26.2797 3.2737 26.7962 3.55625L42.8275 12.8125C43.339 13.1098 43.7636 13.5361 44.0588 14.0488C44.3541 14.5615 44.5098 15.1427 44.5103 15.7344V34.2438C44.5094 34.8358 44.3536 35.4172 44.0584 35.9304C43.7632 36.4435 43.3388 36.8704 42.8275 37.1688L26.7962 46.425C26.2841 46.7205 25.7031 46.8757 25.1118 46.875Z" fill="#83CD29"/>
<path d="M22.0713 28.0516C22.0713 27.9272 22.1207 27.808 22.2086 27.7201C22.2965 27.6322 22.4157 27.5828 22.54 27.5828H24.6135C24.7243 27.5832 24.8313 27.6228 24.9157 27.6946C25.0001 27.7663 25.0563 27.8657 25.0744 27.975C25.3869 30.0859 26.3244 31.15 30.5635 31.15C33.94 31.15 35.3791 30.3859 35.3791 28.5937C35.3791 27.5609 34.9713 26.7938 29.7229 26.2797C25.3354 25.8453 22.6229 24.8734 22.6229 21.3672C22.6229 18.1328 25.3494 16.2031 29.9197 16.2031C35.0557 16.2031 37.5979 17.9859 37.9197 21.8109C37.9246 21.8748 37.9164 21.939 37.8956 21.9995C37.8747 22.0601 37.8417 22.1157 37.7985 22.163C37.7553 22.2103 37.7029 22.2483 37.6444 22.2745C37.586 22.3008 37.5228 22.3147 37.4588 22.3156H35.3713C35.2666 22.3142 35.1654 22.2777 35.0838 22.212C35.0022 22.1463 34.945 22.0551 34.9213 21.9531C34.4229 19.7328 33.2025 19.0234 29.9213 19.0234C26.2338 19.0234 25.8057 20.3078 25.8057 21.2703C25.8057 22.4359 26.3119 22.7766 31.29 23.4344C36.2166 24.0859 38.5572 25.0078 38.5572 28.4703C38.5572 31.9641 35.6447 33.9641 30.565 33.9641C23.5416 33.9734 22.0713 30.7531 22.0713 28.0516Z" fill="#83CD29"/>
</svg>
