<svg width="50" height="50" viewBox="0 0 50 50" fill="none" xmlns="http://www.w3.org/2000/svg">
<g clip-path="url(#clip0_931_17)">
<path d="M38.2812 0H11.7188C5.24666 0 0 5.24666 0 11.7188V38.2812C0 44.7533 5.24666 50 11.7188 50H38.2812C44.7533 50 50 44.7533 50 38.2812V11.7188C50 5.24666 44.7533 0 38.2812 0Z" fill="#242938"/>
<path d="M27.1068 36.9791H40.5389C40.9654 36.9793 41.3846 36.868 41.7541 36.6564C42.1229 36.4458 42.4297 36.1416 42.6436 35.7746C42.8566 35.409 42.9688 34.9933 42.9686 34.5702C42.9684 34.147 42.8558 33.7314 42.6424 33.366L33.6219 17.8805C33.408 17.5136 33.1013 17.2096 32.7326 16.9988C32.3626 16.7872 31.9438 16.6759 31.5176 16.6759C31.0914 16.6759 30.6725 16.7872 30.3025 16.9988C29.9339 17.2096 29.6272 17.5136 29.4133 17.8805L27.1068 21.8428L22.5971 14.0947C22.383 13.7279 22.0762 13.4239 21.7074 13.2133C21.3374 13.0017 20.9185 12.8904 20.4922 12.8904C20.0659 12.8904 19.647 13.0017 19.277 13.2133C18.9082 13.4239 18.6014 13.7279 18.3873 14.0947L7.16211 33.366C6.94878 33.7315 6.83622 34.147 6.83594 34.5701C6.83594 34.993 6.94785 35.4084 7.16113 35.7746C7.37497 36.1416 7.68176 36.4458 8.05059 36.6564C8.42059 36.8681 8.83954 36.9794 9.26582 36.9791H17.6975C21.0381 36.9791 23.5018 35.5248 25.1969 32.6875L29.3125 25.6232L31.517 21.8428L38.1328 33.1986H29.3125L27.1068 36.9791ZM17.56 33.1947L11.6758 33.1934L20.4961 18.0531L24.8971 25.6232L21.9504 30.683C20.8246 32.524 19.5459 33.1947 17.56 33.1947Z" fill="#00DC82"/>
</g>
<defs>
<clipPath id="clip0_931_17">
<rect width="50" height="50" fill="white"/>
</clipPath>
</defs>
</svg>
