<svg width="67" height="50" viewBox="0 0 67 50" fill="none" xmlns="http://www.w3.org/2000/svg">
<g clip-path="url(#clip0_929_27)">
<path d="M21.9657 28.2167C19.4771 28.9229 17.8443 30.1612 16.7688 31.3984C17.799 30.4971 19.1789 29.6695 21.0401 29.1419C22.944 28.6023 24.5683 28.6062 25.9104 28.8654V27.8159C24.7654 27.7112 23.4529 27.7945 21.9657 28.2167ZM16.655 19.3945L7.41279 21.8294C7.41279 21.8294 7.58102 22.0674 7.893 22.3849L15.7295 20.3198C15.7295 20.3198 15.6183 21.7508 14.6539 23.0307C16.4782 21.6508 16.655 19.3945 16.655 19.3945ZM24.3917 41.1159C11.3849 44.619 4.50368 29.5456 2.42034 21.7221C1.45784 18.1107 1.03753 15.3758 0.92555 13.6107C0.914917 13.451 0.917094 13.2908 0.932061 13.1315C0.257581 13.1719 -0.0655956 13.5227 2.94157e-05 14.5365C0.112009 16.3003 0.532321 19.0352 1.49482 22.6477C3.57737 30.47 10.4594 45.5435 23.4662 42.0404C26.2972 41.2776 28.424 39.8885 30.0209 38.1151C28.549 39.4443 26.7073 40.4909 24.3917 41.1159ZM26.8354 10.1693V11.095H31.937C31.8326 10.7672 31.7271 10.4719 31.6224 10.1693H26.8354Z" fill="#2D4552"/>
<path d="M33.0775 17.793C35.3717 18.4448 36.5853 20.0534 37.2267 21.4768L39.785 22.2034C39.785 22.2034 39.4361 17.2211 34.9296 15.9411C30.7137 14.7432 28.1194 18.2836 27.8038 18.7417C29.0303 17.868 30.821 17.1526 33.0775 17.793ZM53.4413 21.4997C49.2215 20.2966 46.6283 23.8443 46.3173 24.2958C47.5447 23.4232 49.3345 22.7076 51.59 23.3508C53.8809 24.0034 55.0931 25.6102 55.7366 27.0346L58.2983 27.7638C58.2983 27.7638 57.9439 22.7807 53.4413 21.4997ZM50.8996 34.6359L29.6189 28.6867C29.6189 28.6867 29.8493 29.8547 30.7332 31.3672L48.6506 36.376C50.1256 35.5227 50.8996 34.6359 50.8996 34.6359ZM36.1457 47.4417C19.2954 42.924 21.3324 21.4547 24.059 11.2813C25.1816 7.08855 26.3358 3.9724 27.2931 1.88334C26.722 1.76589 26.2488 2.06667 25.7816 3.01719C24.765 5.07813 23.4655 8.43412 22.2082 13.132C19.4824 23.3055 17.4452 44.7742 34.2947 49.2919C42.2366 51.4195 48.4238 48.1859 53.0358 43.1073C48.6582 47.0724 43.0686 49.2956 36.1457 47.4417Z" fill="#2D4552"/>
<path d="M26.8356 36.0846V31.7521L14.7984 35.1656C14.7984 35.1656 15.6877 29.9974 21.9655 28.2167C23.8695 27.6771 25.4939 27.6807 26.8356 27.9398V10.1693H32.8629C32.2067 8.14141 31.5718 6.58021 31.0385 5.49532C30.1564 3.69975 29.2523 4.89011 27.1997 6.60704C25.7538 7.81485 22.0999 10.3917 16.6012 11.8732C11.1028 13.356 6.65722 12.9628 4.80253 12.6414C2.1731 12.1878 0.79784 11.6102 0.926486 13.6104C1.03847 15.3745 1.45852 18.1096 2.42128 21.7219C4.50357 29.5445 11.3859 44.6177 24.3926 41.1146C27.79 40.1992 30.1879 38.3896 31.8502 36.0833H26.8356V36.0846ZM7.41164 21.8294L16.6549 19.3945C16.6549 19.3945 16.3856 22.9503 12.9205 23.8638C9.45435 24.7763 7.41164 21.8294 7.41164 21.8294Z" fill="#E2574C"/>
<path d="M61.6229 10.375C59.2203 10.7961 53.456 11.3208 46.3323 9.41146C39.2065 7.50313 34.4789 4.16563 32.6057 2.59688C29.9502 0.372918 28.7823 -1.17292 27.6328 1.16511C26.6166 3.22708 25.3169 6.58307 24.0591 11.2813C21.3336 21.4547 19.2963 42.9232 36.1458 47.4409C52.9914 51.9547 61.9599 32.3424 64.6856 22.1682C65.9435 17.4711 66.495 13.9143 66.6466 11.6208C66.8198 9.02292 65.0351 9.77708 61.6229 10.375ZM27.7698 18.7919C27.7698 18.7919 30.425 14.662 34.9286 15.9422C39.4351 17.2221 39.7841 22.2042 39.7841 22.2042L27.7698 18.7919ZM38.7633 37.324C30.8416 35.0036 29.62 28.6867 29.62 28.6867L50.8997 34.6362C50.8997 34.6352 46.6044 39.6154 38.7633 37.3237M46.2867 24.3419C46.2867 24.3419 48.9385 20.2151 53.4414 21.4987C57.944 22.7807 58.2984 27.7628 58.2984 27.7628L46.2867 24.3419Z" fill="#2EAD33"/>
<path d="M22.6291 32.9453L14.7984 35.1646C14.7984 35.1646 15.6489 30.3185 21.4177 28.3982L16.9838 11.757L16.6008 11.8734C11.1021 13.3563 6.65674 12.963 4.80205 12.6417C2.17263 12.1883 0.797106 11.6104 0.925752 13.6109C1.03773 15.375 1.45804 18.1099 2.42054 21.7221C4.5031 29.5448 11.3854 44.618 24.3919 41.1148L24.775 40.9945L22.6291 32.9453ZM7.41169 21.8294L16.6549 19.3943C16.6549 19.3943 16.3856 22.95 12.9205 23.8635C9.4544 24.776 7.41169 21.8294 7.41169 21.8294Z" fill="#D65348"/>
<path d="M39.1205 37.4109L38.7622 37.3237C30.8406 35.0034 29.619 28.6867 29.619 28.6867L40.5922 31.7539L46.4015 9.42995L46.3312 9.41172C39.2057 7.50312 34.4781 4.16562 32.6047 2.59661C29.9495 0.372655 28.7812 -1.17292 27.6317 1.1651C26.6166 3.22708 25.3169 6.58307 24.0591 11.2812C21.3336 21.4547 19.2963 42.9232 36.1458 47.4406L36.4911 47.5187L39.1205 37.4109ZM27.7698 18.7917C27.7698 18.7917 30.425 14.6617 34.9286 15.9419C39.4351 17.2219 39.7841 22.2039 39.7841 22.2039L27.7698 18.7917Z" fill="#1D8D22"/>
<path d="M23.028 32.8313L20.928 33.4273C21.4244 36.2242 22.2989 38.9083 23.6713 41.2794C23.9103 41.2268 24.1473 41.1815 24.3905 41.1148C25.0283 40.943 25.6197 40.7297 26.189 40.4974C24.6551 38.2214 23.6405 35.6005 23.028 32.8313ZM22.2085 13.1323C21.1293 17.1602 20.1637 22.9578 20.4296 28.7729C20.9051 28.5664 21.4077 28.374 21.966 28.2156L22.3546 28.1286C21.8806 21.9172 22.9051 15.5878 24.0593 11.2813C24.3329 10.2599 24.6257 9.2437 24.9377 8.23334C24.4294 8.55831 23.9106 8.86638 23.3819 9.15704C22.9565 10.4718 22.5652 11.7973 22.2085 13.1323Z" fill="#C04B41"/>
</g>
<defs>
<clipPath id="clip0_929_27">
<rect width="66.67" height="50" fill="white" transform="translate(-0.0100098)"/>
</clipPath>
</defs>
</svg>
