<svg width="49" height="50" viewBox="0 0 49 50" fill="none" xmlns="http://www.w3.org/2000/svg">
<g clip-path="url(#clip0_931_38)">
<path d="M48.2995 29.9405C48.0088 29.06 47.2472 28.4468 46.2624 28.2996C45.798 28.2303 45.2662 28.2599 44.6368 28.3896C43.5399 28.6159 42.726 28.7021 42.1321 28.7188C44.3739 24.9337 46.1969 20.6174 47.2463 16.5544C48.9433 9.98447 48.0364 6.99148 46.9768 5.63769C44.1724 2.05436 40.0809 0.129358 35.145 0.0704568C32.5118 0.0382599 30.2003 0.558146 28.9944 0.93201C27.8717 0.733904 26.6645 0.623298 25.3978 0.602843C23.0234 0.564964 20.9255 1.08258 19.1328 2.1464C18.1404 1.8108 16.5476 1.33769 14.7082 1.0358C10.3821 0.32557 6.89534 0.87898 4.34496 2.68068C1.25671 4.86212 -0.174922 8.65228 0.0898509 13.9458C0.173942 15.6265 1.11409 20.7402 2.5944 25.5898C3.44515 28.3773 4.35235 30.692 5.2908 32.4705C6.62167 34.9922 8.04572 36.4773 9.6444 37.0106C10.5404 37.3091 12.1684 37.5182 13.8808 36.092C14.0978 36.3549 14.3874 36.6161 14.7717 36.8587C15.2597 37.1665 15.8565 37.418 16.4525 37.567C18.6005 38.104 20.6124 37.9697 22.3289 37.217C22.3395 37.5223 22.3476 37.814 22.3544 38.0659C22.3658 38.4744 22.3772 38.875 22.3921 39.2496C22.4938 41.7826 22.6662 43.7521 23.1768 45.1301C23.2048 45.2059 23.2425 45.3214 23.2823 45.4439C23.537 46.2239 23.963 47.5295 25.0467 48.5521C26.1688 49.6114 27.5262 49.9362 28.7694 49.9362C29.3929 49.9362 29.9878 49.8544 30.5095 49.7426C32.3694 49.3439 34.4817 48.7367 36.0097 46.561C37.4544 44.5042 38.1567 41.4063 38.2838 36.525C38.3002 36.3869 38.3156 36.2551 38.33 36.1295L38.3603 35.8716L38.7006 35.9015L38.7883 35.9074C40.6827 35.9938 42.9989 35.592 44.4215 34.9313C45.5455 34.4097 49.1476 32.508 48.2995 29.9405Z" fill="black"/>
<path d="M45.0604 30.4398C39.4278 31.6017 39.0405 29.6947 39.0405 29.6947C44.9875 20.8703 47.4737 9.66893 45.3284 6.92746C39.4754 -0.550764 29.3438 2.98598 29.1746 3.07765L29.1203 3.08749C28.0074 2.85643 26.7621 2.71893 25.3623 2.69602C22.8138 2.65435 20.8805 3.3642 19.4134 4.4767C19.4134 4.4767 1.33958 -2.96914 2.1803 13.8411C2.35909 17.4172 7.30606 40.9004 13.2064 33.8074C15.3631 31.2136 17.447 29.0206 17.447 29.0206C18.4818 29.7081 19.7208 30.0589 21.0197 29.9329L21.1206 29.8473C21.0892 30.1693 21.1036 30.4843 21.161 30.8572C19.6409 32.5555 20.0877 32.8536 17.0491 33.4792C13.9742 34.1129 15.7805 35.2409 16.9598 35.536C18.3896 35.8934 21.6972 36.3998 23.932 33.2712L23.843 33.6282C24.4384 34.1053 24.8566 36.7311 24.7866 39.1115C24.7165 41.4919 24.6697 43.1261 25.1388 44.4026C25.6083 45.6792 26.0759 48.5513 30.0706 47.6954C33.4083 46.9801 35.1381 45.1265 35.3788 42.0345C35.5494 39.8364 35.936 40.1614 35.9602 38.196L36.2703 37.2657C36.6277 34.286 36.3271 33.3246 38.3833 33.7718L38.8833 33.8157C40.3966 33.8845 42.3777 33.5722 43.5403 33.0318C46.0437 31.8701 47.5286 29.9301 45.06 30.4398H45.0604Z" fill="#336791"/>
<path d="M20.4715 15.4403C19.9639 15.3697 19.5042 15.435 19.2717 15.6112C19.141 15.7102 19.1005 15.825 19.0895 15.904C19.0603 16.1133 19.2069 16.3447 19.297 16.464C19.552 16.8019 19.9243 17.0341 20.2929 17.0852C20.3463 17.0927 20.3994 17.0963 20.4523 17.0962C21.0669 17.0962 21.6258 16.6176 21.6751 16.2644C21.7366 15.822 21.0944 15.5269 20.4715 15.4403ZM37.2866 15.4544C37.2381 15.1076 36.6211 15.0087 36.0355 15.0901C35.4506 15.1716 34.8836 15.4356 34.9309 15.7831C34.9688 16.0534 35.4569 16.5148 36.0345 16.5148C36.0834 16.5148 36.1327 16.5114 36.1823 16.5045C36.5679 16.4511 36.8508 16.2062 36.9853 16.0651C37.1898 15.85 37.3084 15.6102 37.2866 15.4544Z" fill="white"/>
<path d="M46.9347 30.3078C46.7199 29.6583 46.0286 29.4494 44.8801 29.6866C41.4701 30.3903 40.2489 29.9028 39.8479 29.6076C42.4985 25.5697 44.679 20.6886 45.8553 16.1347C46.4125 13.9775 46.7203 11.9741 46.7455 10.3411C46.7733 8.54887 46.468 7.23182 45.8385 6.42728C43.3002 3.18391 39.5748 1.44413 35.0654 1.39641C31.9652 1.36156 29.3458 2.15493 28.8381 2.37804C27.7688 2.11213 26.603 1.94887 25.3339 1.92804C23.0066 1.89035 20.9949 2.44754 19.3294 3.58334C18.6059 3.31402 16.7362 2.67216 14.4496 2.30379C10.4966 1.66743 7.35532 2.14963 5.11365 3.7377C2.43884 5.63277 1.20399 9.02027 1.44319 13.8059C1.52369 15.4159 2.44111 20.3689 3.88884 25.1123C5.79452 31.3555 7.86611 34.8898 10.0457 35.6169C10.3008 35.7019 10.5949 35.7614 10.9193 35.7614C11.7144 35.7614 12.6892 35.403 13.7034 34.1837C14.9405 32.6997 16.2201 31.2518 17.5407 29.8417C18.3975 30.3015 19.3388 30.5583 20.3015 30.5841C20.3035 30.6093 20.3058 30.6345 20.3082 30.6595C20.1425 30.8571 19.9802 31.0576 19.8214 31.2608C19.1544 32.1076 19.0155 32.2839 16.8684 32.726C16.2576 32.8521 14.6354 33.1864 14.6116 34.3235C14.5858 35.5659 16.5292 36.0877 16.7506 36.143C17.5222 36.3362 18.2655 36.4314 18.9744 36.4314C20.6985 36.4314 22.2157 35.8648 23.4282 34.7684C23.3909 39.1975 23.5756 43.5619 24.1074 44.8917C24.543 45.9803 25.607 48.6407 28.968 48.6405C29.4612 48.6405 30.004 48.5831 30.6011 48.4551C34.1089 47.7032 35.6322 46.1528 36.2214 42.7349C36.5368 40.9081 37.0779 36.5462 37.3324 34.2064C37.8695 34.3741 38.561 34.4508 39.3085 34.4506C40.8676 34.4506 42.6667 34.1193 43.7949 33.5956C45.0623 33.007 47.3494 31.5627 46.9347 30.3078ZM38.5813 14.4972C38.5697 15.1879 38.4746 15.815 38.3739 16.4695C38.2654 17.1735 38.1532 17.9013 38.125 18.7849C38.0972 19.6447 38.2046 20.5386 38.3083 21.4032C38.5182 23.1494 38.7335 24.9472 37.9 26.721C37.7618 26.4756 37.6384 26.222 37.5307 25.9617C37.4271 25.7106 37.2021 25.3072 36.8905 24.7489C35.6786 22.5754 32.8405 17.4856 34.2934 15.4087C34.7261 14.7905 35.8244 14.1549 38.5813 14.4972ZM35.2396 2.79508C39.2801 2.88429 42.4763 4.39584 44.7392 7.28751C46.4748 9.5055 44.5636 19.5977 39.0309 28.3044C38.9752 28.2336 38.9193 28.1631 38.8631 28.0928L38.793 28.0053C40.2227 25.6441 39.9432 23.308 39.6943 21.2367C39.5921 20.3867 39.4955 19.5839 39.5201 18.8297C39.5455 18.0305 39.6511 17.3449 39.7534 16.682C39.879 15.8652 40.0068 15.0199 39.9716 14.0235C39.9979 13.9189 40.0085 13.7955 39.9947 13.6489C39.9047 12.6934 38.8138 9.83372 36.5904 7.24546C35.3741 5.82974 33.6004 4.24546 31.1786 3.1769C32.2203 2.96099 33.6447 2.75966 35.2396 2.79508ZM12.6301 33.2913C11.5127 34.6349 10.7411 34.3773 10.4873 34.2928C8.83391 33.7413 6.91535 30.2466 5.22388 24.7049C3.76024 19.9099 2.90494 15.0881 2.83713 13.736C2.6235 9.45985 3.66005 6.47974 5.91819 4.87823C9.59319 2.27216 15.6352 3.83201 18.0631 4.62311C18.0282 4.65758 17.9919 4.68978 17.9574 4.72482C13.9733 8.7483 14.0678 15.6225 14.0777 16.0428C14.0773 16.2049 14.0909 16.4345 14.1095 16.7502C14.178 17.9064 14.3057 20.0583 13.9648 22.4953C13.6481 24.7599 14.3462 26.9763 15.8797 28.5765C16.0371 28.7405 16.2025 28.8965 16.3754 29.0439C15.6928 29.775 14.2093 31.3917 12.6301 33.2913ZM16.8875 27.6108C15.6515 26.321 15.0902 24.5271 15.3472 22.6885C15.707 20.1142 15.5743 17.8722 15.5029 16.6676C15.4928 16.4991 15.4839 16.3513 15.4788 16.2349C16.0608 15.7188 18.758 14.2737 20.6815 14.7144C21.5591 14.9153 22.094 15.5131 22.3163 16.5411C23.4671 21.8636 22.4686 24.082 21.6663 25.8648C21.501 26.232 21.3447 26.5792 21.2114 26.9383L21.108 27.2159C20.8462 27.9178 20.6027 28.5705 20.4517 29.1902C19.1377 29.1864 17.8595 28.625 16.8875 27.6106M17.0892 34.7886C16.7055 34.6928 16.3604 34.5263 16.158 34.3883C16.3271 34.3087 16.628 34.2004 17.15 34.0928C19.676 33.5729 20.0661 33.2059 20.918 32.1242C21.1133 31.8761 21.3347 31.5951 21.6413 31.2527L21.6417 31.2523C22.0983 30.7409 22.3072 30.8277 22.686 30.9849C22.993 31.1117 23.2921 31.4966 23.4133 31.9201C23.4707 32.1201 23.535 32.4996 23.3243 32.7951C21.5447 35.2867 18.9515 35.2547 17.0892 34.7886ZM30.3087 47.0902C27.2186 47.7523 26.1244 46.1756 25.4034 44.3731C24.9381 43.2095 24.7093 37.9621 24.8716 32.1672C24.8737 32.0902 24.8627 32.0157 24.8415 31.9456C24.8225 31.8073 24.7937 31.6704 24.7551 31.5362C24.5138 30.693 23.9258 29.9877 23.2203 29.6953C22.94 29.5792 22.4256 29.3661 21.8074 29.5242C21.9392 28.9811 22.1678 28.3676 22.4157 27.7034L22.5197 27.4241C22.6368 27.1091 22.7837 26.7828 22.939 26.4373C23.7786 24.5722 24.9284 22.0174 23.6805 16.246C23.2131 14.0843 21.6521 13.0286 19.2858 13.2739C17.8672 13.4206 16.5693 13.993 15.922 14.3212C15.7828 14.3917 15.6555 14.4599 15.5366 14.5261C15.7172 12.3481 16.3998 8.27766 18.9532 5.70228C20.561 4.08107 22.7021 3.28031 25.3108 3.32349C30.451 3.40758 33.7472 6.04546 35.6074 8.24376C37.2104 10.1379 38.0784 12.046 38.4248 13.0752C35.8197 12.8102 34.0479 13.3244 33.1498 14.6085C31.1958 17.4017 34.2188 22.8229 35.6716 25.4284C35.9381 25.9059 36.168 26.3186 36.2404 26.4939C36.7135 27.6405 37.326 28.4061 37.7731 28.9648C37.9102 29.136 38.0432 29.3021 38.1443 29.4472C37.3553 29.6746 35.9381 30.2002 36.0672 32.8273C35.9631 34.1455 35.2224 40.317 34.846 42.4975C34.3493 45.3782 33.2892 46.451 30.3087 47.0902ZM43.2072 32.3297C42.4004 32.7042 41.0502 32.985 39.7676 33.0455C38.351 33.1117 37.6297 32.8867 37.46 32.7483C37.3805 31.1112 37.9898 30.9402 38.6347 30.7591C38.736 30.7307 38.8349 30.7028 38.9303 30.6695C38.9895 30.7179 39.0547 30.7656 39.1258 30.8127C40.2644 31.5642 42.2953 31.6453 45.1625 31.0534L45.1939 31.0472C44.8072 31.4087 44.1455 31.8939 43.2072 32.3297Z" fill="white"/>
</g>
<defs>
<clipPath id="clip0_931_38">
<rect width="48.49" height="50" fill="white"/>
</clipPath>
</defs>
</svg>
