<svg width="50" height="50" viewBox="0 0 50 50" fill="none" xmlns="http://www.w3.org/2000/svg">
<g clip-path="url(#clip0_931_21)">
<path d="M38.2812 0H11.7188C5.24666 0 0 5.24666 0 11.7188V38.2812C0 44.7533 5.24666 50 11.7188 50H38.2812C44.7533 50 50 44.7533 50 38.2812V11.7188C50 5.24666 44.7533 0 38.2812 0Z" fill="#CD6799"/>
<mask id="mask0_931_21" style="mask-type:luminance" maskUnits="userSpaceOnUse" x="5" y="10" width="40" height="30">
<path d="M5.46875 10.3516H44.5312V39.6307H5.46875V10.3516Z" fill="white"/>
</mask>
<g mask="url(#mask0_931_21)">
<path d="M39.0835 27.1803C37.7214 27.1873 36.5378 27.5154 35.5466 28.0002C35.1829 27.2801 34.8192 26.6383 34.755 26.1676C34.6837 25.6185 34.5981 25.2834 34.6837 24.6273C34.7692 23.9713 35.1544 23.0373 35.1472 22.966C35.1401 22.8945 35.0616 22.5596 34.2772 22.5523C33.4929 22.5453 32.8155 22.7021 32.737 22.909C32.6585 23.1156 32.5089 23.5863 32.4091 24.0713C32.2735 24.7844 30.8401 27.3301 30.0202 28.6635C29.7563 28.143 29.5282 27.6865 29.4782 27.3228C29.4069 26.7738 29.3214 26.4387 29.4069 25.7826C29.4925 25.1266 29.8776 24.1924 29.8704 24.1211C29.8634 24.0498 29.7849 23.7146 29.0005 23.7076C28.2161 23.7004 27.5386 23.8572 27.4602 24.0641C27.3817 24.2709 27.2962 24.7559 27.1321 25.2264C26.9683 25.6971 25.0644 29.9471 24.5651 31.0451C24.3634 31.4895 24.1519 31.9293 23.9306 32.3643C23.9306 32.3643 23.9233 32.3857 23.902 32.4213C23.8324 32.5577 23.7611 32.6932 23.688 32.8277V32.835C23.5811 33.0275 23.4669 33.2057 23.4099 33.2057C23.3671 33.2057 23.2888 32.6924 23.4241 31.9935C23.7095 30.5174 24.3868 28.2213 24.3798 28.143C24.3798 28.1002 24.5081 27.7008 23.9376 27.4939C23.3813 27.2871 23.1817 27.6295 23.1317 27.6295C23.0819 27.6295 23.0462 27.7508 23.0462 27.7508C23.0462 27.7508 23.6667 25.1693 21.8626 25.1693C20.7358 25.1693 19.1813 26.4029 18.4114 27.5154C17.5359 27.9918 16.6611 28.4696 15.787 28.9486C15.3665 29.184 14.9315 29.4193 14.5249 29.6404C14.4964 29.6119 14.4679 29.5762 14.4394 29.5476C12.2573 27.2158 8.22138 25.5687 8.39248 22.4383C8.45673 21.2973 8.84892 18.3023 16.1436 14.6656C22.1477 11.7064 26.9255 12.5264 27.7526 14.3447C28.9362 16.9404 25.1927 21.7607 18.989 22.4596C16.6214 22.7234 15.3808 21.8107 15.0671 21.4685C14.739 21.1119 14.689 21.0906 14.5677 21.1619C14.3681 21.2687 14.4964 21.5896 14.5677 21.775C14.7532 22.26 15.5161 23.1156 16.8067 23.5363C17.9477 23.9072 20.7216 24.1141 24.0802 22.8162C27.8382 21.3615 30.7761 17.3182 29.9132 13.9312C29.0505 10.4941 23.3458 9.36035 17.9477 11.2785C14.7388 12.4195 11.2591 14.2164 8.75615 16.5553C5.78251 19.3365 5.31201 21.7537 5.50459 22.7662C6.19619 26.3602 11.152 28.699 13.1345 30.4318C13.0347 30.4889 12.9419 30.5389 12.8636 30.5816C11.8724 31.0736 8.09306 33.0488 7.15166 35.1383C6.08212 37.5057 7.32294 39.2027 8.14287 39.4309C10.6886 40.1369 13.3056 38.8676 14.7104 36.7711C16.1151 34.6746 15.944 31.9508 15.295 30.7029C15.2881 30.6871 15.2784 30.6726 15.2665 30.6601C15.5233 30.5103 15.787 30.3535 16.0438 30.2037C16.5157 29.9248 16.9936 29.6562 17.477 29.3978C17.2347 30.0611 17.0563 30.8525 16.9708 31.9935C16.864 33.3342 17.413 35.074 18.1331 35.7586C18.454 36.058 18.8319 36.0652 19.0745 36.0652C19.9159 36.0652 20.2938 35.3664 20.7145 34.5393C21.2278 33.5266 21.6915 32.35 21.6915 32.35C21.6915 32.35 21.1138 35.5305 22.6825 35.5305C23.253 35.5305 23.8306 34.7889 24.0874 34.4109V34.418C24.0874 34.418 24.1017 34.3967 24.1302 34.3467C24.1872 34.2539 24.2227 34.1969 24.2227 34.1969V34.1826C24.4511 33.7834 24.9644 32.8777 25.7274 31.373C26.7114 29.4336 27.6599 27.0092 27.6599 27.0092C27.6599 27.0092 27.7454 27.601 28.0378 28.585C28.2089 29.1627 28.5655 29.7973 28.8507 30.4105C28.6226 30.7314 28.48 30.9096 28.48 30.9096L28.487 30.9168C28.3017 31.1592 28.102 31.423 27.881 31.6797C27.1036 32.6068 26.1767 33.6693 26.0483 33.976C25.8985 34.3396 25.9343 34.6033 26.2194 34.8174C26.4263 34.9742 26.797 34.9955 27.1749 34.9742C27.8737 34.9242 28.3659 34.7531 28.6083 34.6461C28.9862 34.5107 29.4284 34.3039 29.8419 33.9973C30.605 33.434 31.0685 32.6281 31.0257 31.5656C31.0042 30.9809 30.8116 30.3963 30.5765 29.8471C30.6477 29.7473 30.7118 29.6475 30.7831 29.5476C31.9884 27.7863 32.9224 25.8539 32.9224 25.8539C32.9224 25.8539 33.0079 26.4457 33.3003 27.4299C33.4429 27.9289 33.7353 28.4709 33.9921 28.9986C32.8583 29.9185 32.1595 30.9881 31.9099 31.6869C31.4606 32.9848 31.8101 33.5693 32.4731 33.7049C32.7727 33.7691 33.2005 33.6266 33.5144 33.491C33.9136 33.3627 34.3843 33.1416 34.8335 32.8135C35.5964 32.2502 36.331 31.4658 36.2882 30.4033C36.2667 29.9185 36.1384 29.4406 35.9601 28.9771C36.9228 28.5779 38.1636 28.3568 39.7466 28.5422C43.1409 28.9416 43.8112 31.0594 43.6827 31.9508C43.5544 32.842 42.8413 33.3269 42.606 33.4768C42.3708 33.6266 42.2923 33.6764 42.3138 33.7834C42.3423 33.9402 42.4563 33.933 42.656 33.9045C42.9341 33.8547 44.4386 33.1844 44.5028 31.5443C44.6099 29.4478 42.6132 27.1588 39.0835 27.1803ZM12.8991 36.0082C11.7726 37.2346 10.2038 37.6982 9.52626 37.306C8.79892 36.8852 9.08408 35.074 10.4677 33.7762C11.3089 32.9848 12.3929 32.2502 13.113 31.801C13.277 31.7012 13.5194 31.5586 13.8118 31.3803C13.8618 31.3518 13.8903 31.3375 13.8903 31.3375L14.0614 31.2305C14.5677 33.0846 14.0827 34.7176 12.8991 36.0082ZM21.0997 30.4318C20.7075 31.3875 19.8876 33.8332 19.3884 33.6978C18.9606 33.5836 18.6968 31.7297 19.3028 29.8971C19.6095 28.9771 20.2583 27.8791 20.6362 27.4512C21.2495 26.7666 21.9269 26.5385 22.0909 26.8166C22.2977 27.1803 21.3423 29.8328 21.0997 30.4318ZM27.8669 33.6693C27.7028 33.7549 27.546 33.8119 27.4747 33.7691C27.4247 33.7406 27.546 33.6266 27.546 33.6266C27.546 33.6266 28.3946 32.7137 28.7298 32.3002C28.9222 32.0576 29.1505 31.7725 29.3929 31.4516V31.5443C29.3929 32.6353 28.3376 33.3697 27.8669 33.6693ZM33.0866 32.4783C32.9653 32.3928 32.9868 32.1076 33.3933 31.2162C33.5501 30.8668 33.921 30.2822 34.5556 29.7187C34.6269 29.9471 34.6769 30.168 34.6696 30.3748C34.6626 31.7512 33.6784 32.2644 33.0866 32.4783Z" fill="white"/>
</g>
</g>
<defs>
<clipPath id="clip0_931_21">
<rect width="50" height="50" fill="white"/>
</clipPath>
</defs>
</svg>
