<svg width="31" height="50" viewBox="0 0 31 50" fill="none" xmlns="http://www.w3.org/2000/svg">
<path d="M8.39419 2.5162C8.08833 2.56058 7.8025 2.69465 7.57284 2.90146C7.34317 3.10827 7.17997 3.37853 7.10388 3.67807C7.02779 3.97762 7.04223 4.293 7.14535 4.58434C7.24848 4.87569 7.43568 5.12991 7.68327 5.31488C7.93087 5.49985 8.22775 5.60725 8.53638 5.62352C8.84501 5.63978 9.15153 5.56417 9.4172 5.40625C9.68286 5.24833 9.89574 5.01519 10.0289 4.7363C10.1621 4.45741 10.2096 4.14529 10.1654 3.83941C10.1361 3.6362 10.0669 3.44076 9.96203 3.26427C9.85712 3.08777 9.71846 2.93368 9.55397 2.8108C9.38948 2.68792 9.20239 2.59865 9.00339 2.5481C8.80439 2.49756 8.59738 2.48671 8.39419 2.5162ZM12.9785 2.52662C12.5571 2.56437 12.165 2.75858 11.8796 3.07099C11.5942 3.38339 11.4361 3.79134 11.4365 4.21449C11.4358 4.43814 11.4795 4.65972 11.5649 4.86642C11.6503 5.07312 11.7758 5.26084 11.9342 5.41875C12.0926 5.57665 12.2807 5.70161 12.4877 5.78641C12.6947 5.8712 12.9164 5.91415 13.14 5.91278C13.3624 5.91209 13.5824 5.86762 13.7875 5.78191C13.9927 5.69619 14.1789 5.5709 14.3357 5.4132C14.4924 5.2555 14.6165 5.06847 14.701 4.8628C14.7855 4.65712 14.8286 4.43683 14.8279 4.21449C14.8265 3.76636 14.6475 3.33705 14.3302 3.02067C14.0128 2.70428 13.5829 2.52662 13.1348 2.52662C13.0827 2.52421 13.0306 2.52421 12.9785 2.52662ZM4.30475 4.56873C3.93107 4.62418 3.59441 4.82498 3.36806 5.12744C3.14171 5.42989 3.04398 5.80951 3.09615 6.18366C3.21076 6.96509 3.92967 7.50167 4.71109 7.38706C4.89586 7.36094 5.07362 7.29845 5.23409 7.2032C5.39456 7.10795 5.53455 6.98183 5.64597 6.83214C5.7574 6.68244 5.83803 6.51215 5.88323 6.33109C5.92842 6.15004 5.93727 5.96183 5.90927 5.77733C5.85632 5.4045 5.65767 5.06788 5.35688 4.84131C5.05609 4.61474 4.67772 4.51671 4.30475 4.56873ZM15.1717 6.52228C15.171 6.76192 15.2177 6.99932 15.3091 7.22085C15.4005 7.44237 15.5348 7.64365 15.7042 7.8131C15.8737 7.98254 16.0749 8.11682 16.2965 8.20821C16.518 8.29959 16.7554 8.34629 16.995 8.3456C17.4763 8.34284 17.9369 8.14936 18.2757 7.80757C18.6146 7.46578 18.8041 7.00358 18.8027 6.52228C18.8013 6.04238 18.6097 5.5826 18.2699 5.24374C17.9301 4.90488 17.4697 4.71459 16.9898 4.7146C16.7517 4.71391 16.5159 4.76012 16.2957 4.8506C16.0754 4.94107 15.8752 5.07403 15.7064 5.24189C15.5375 5.40975 15.4034 5.60923 15.3117 5.82891C15.22 6.0486 15.1724 6.28421 15.1717 6.52228ZM1.75211 8.15806C1.58619 8.18229 1.42667 8.23898 1.28266 8.32488C1.13865 8.41079 1.01299 8.52423 0.912844 8.65873C0.8127 8.79322 0.740039 8.94613 0.699014 9.10872C0.657989 9.27131 0.649404 9.44038 0.67375 9.60629C0.697939 9.77136 0.754518 9.93002 0.840234 10.0731C0.92595 10.2163 1.03911 10.3411 1.17321 10.4403C1.30732 10.5395 1.45971 10.6113 1.62164 10.6514C1.78357 10.6916 1.95184 10.6993 2.11677 10.6742C2.28176 10.6512 2.44058 10.5959 2.58413 10.5114C2.72768 10.4269 2.85314 10.3149 2.95332 10.1818C3.0535 10.0487 3.12643 9.89712 3.16793 9.73579C3.20942 9.57447 3.21867 9.40654 3.19513 9.24163C3.14486 8.90818 2.96519 8.60798 2.69506 8.40612C2.42494 8.20426 2.08614 8.117 1.75211 8.16326V8.15806ZM19.0788 8.81966C18.5774 8.89308 18.1256 9.16259 17.8228 9.56896C17.52 9.97533 17.3909 10.4853 17.4639 10.9868C17.5361 11.4882 17.8043 11.9404 18.2097 12.2441C18.615 12.5479 19.1243 12.6784 19.6258 12.6069C19.8746 12.5712 20.1138 12.4868 20.3299 12.3585C20.546 12.2302 20.7347 12.0606 20.8852 11.8593C21.0357 11.658 21.145 11.429 21.2069 11.1855C21.2688 10.9419 21.2821 10.6885 21.246 10.4398C21.1725 9.93836 20.903 9.48659 20.4967 9.18377C20.0903 8.88095 19.5803 8.75186 19.0788 8.82487V8.81966ZM1.00716 12.3413C0.698452 12.3864 0.420269 12.5521 0.233707 12.8022C0.047144 13.0522 -0.0325434 13.3661 0.0121467 13.6749C0.058511 13.9854 0.22592 14.2649 0.477777 14.4523C0.729634 14.6398 1.04545 14.7199 1.35619 14.6751C1.50934 14.6534 1.65668 14.6017 1.78972 14.5228C1.92277 14.4439 2.03888 14.3394 2.13138 14.2155C2.22387 14.0915 2.29092 13.9504 2.32864 13.8004C2.36637 13.6504 2.37404 13.4945 2.3512 13.3415C2.30484 13.031 2.13743 12.7515 1.88557 12.564C1.63371 12.3766 1.31789 12.2965 1.00716 12.3413ZM2.14803 16.3942C1.88695 16.4316 1.6514 16.5712 1.49316 16.7822C1.33491 16.9932 1.26691 17.2584 1.3041 17.5195C1.34397 17.7824 1.48641 18.0189 1.70023 18.1771C1.91406 18.3352 2.18185 18.4022 2.44497 18.3634C2.70605 18.326 2.9416 18.1865 3.09984 17.9755C3.25809 17.7645 3.32609 17.4993 3.2889 17.2382C3.24775 16.9758 3.105 16.7402 2.8915 16.5823C2.67801 16.4244 2.41094 16.3568 2.14803 16.3942ZM4.72151 19.77C4.49508 19.8035 4.29116 19.9254 4.15445 20.1089C4.01774 20.2925 3.95938 20.5228 3.99218 20.7493C4.00872 20.8606 4.04708 20.9675 4.10504 21.0639C4.163 21.1603 4.23943 21.2444 4.32995 21.3111C4.42046 21.3779 4.52327 21.4262 4.63248 21.4532C4.74169 21.4801 4.85516 21.4853 4.96635 21.4683C5.19175 21.4347 5.3948 21.3136 5.53137 21.1312C5.66794 20.9487 5.72699 20.7198 5.69568 20.4941C5.67976 20.3824 5.64185 20.2749 5.58416 20.1779C5.52647 20.0809 5.45013 19.9963 5.35955 19.9289C5.26897 19.8616 5.16595 19.8129 5.05643 19.7856C4.94692 19.7583 4.83309 19.753 4.72151 19.77ZM17.6775 20.916C17.1227 20.916 16.5907 21.1364 16.1985 21.5287C15.8062 21.9209 15.5859 22.4529 15.5859 23.0077C15.5859 23.5624 15.8062 24.0944 16.1985 24.4866C16.5907 24.8789 17.1227 25.0993 17.6775 25.0993C18.2325 25.0979 18.7643 24.8768 19.1568 24.4844C19.5492 24.0919 19.7703 23.56 19.7717 23.005C19.7717 21.8538 18.834 20.9213 17.6775 20.9213V20.916ZM8.24311 21.3172C8.0381 21.3329 7.84653 21.4252 7.70655 21.5758C7.56657 21.7264 7.48845 21.9243 7.48774 22.1299C7.48704 22.2386 7.50802 22.3464 7.54947 22.4469C7.59091 22.5474 7.65198 22.6387 7.7291 22.7153C7.80623 22.7919 7.89786 22.8524 7.99864 22.8932C8.09942 22.934 8.20732 22.9543 8.31604 22.953C8.42345 22.9523 8.52967 22.9304 8.62864 22.8887C8.72761 22.847 8.81739 22.7862 8.89286 22.7097C8.96832 22.6333 9.02799 22.5427 9.06846 22.4433C9.10893 22.3438 9.12941 22.2373 9.12872 22.1299C9.12736 21.9147 9.0413 21.7088 8.88919 21.5567C8.73707 21.4046 8.53116 21.3185 8.31604 21.3172C8.29175 21.3161 8.26741 21.3161 8.24311 21.3172ZM11.7439 21.7965C11.1583 21.8194 10.6044 22.0682 10.1984 22.4907C9.79243 22.9132 9.56587 23.4766 9.56632 24.0626C9.56632 24.5108 9.69922 24.9489 9.94823 25.3216C10.1972 25.6942 10.5512 25.9847 10.9652 26.1562C11.3793 26.3277 11.835 26.3726 12.2745 26.2851C12.7141 26.1977 13.1179 25.9819 13.4348 25.665C13.7517 25.348 13.9676 24.9443 14.055 24.5047C14.1425 24.0651 14.0976 23.6094 13.9261 23.1954C13.7545 22.7813 13.4641 22.4274 13.0914 22.1784C12.7188 21.9294 12.2806 21.7965 11.8324 21.7965C11.8029 21.7959 11.7734 21.7959 11.7439 21.7965ZM23.2308 22.7081C22.9799 22.7088 22.7317 22.759 22.5003 22.8557C22.2689 22.9525 22.0589 23.094 21.8822 23.2721C21.7056 23.4502 21.5658 23.6614 21.4709 23.8935C21.3761 24.1257 21.3279 24.3744 21.3293 24.6252C21.3293 25.6775 22.1785 26.5371 23.2308 26.5371C23.4818 26.5371 23.7304 26.4876 23.9624 26.3915C24.1944 26.2955 24.4051 26.1546 24.5827 25.9771C24.7602 25.7996 24.901 25.5888 24.9971 25.3568C25.0932 25.1249 25.1426 24.8763 25.1426 24.6252C25.1426 24.1177 24.9414 23.6308 24.583 23.2715C24.2246 22.9121 23.7383 22.7095 23.2308 22.7081ZM7.26373 25.3649C6.94449 25.3649 6.62839 25.4279 6.33352 25.5502C6.03865 25.6726 5.7708 25.8518 5.5453 26.0778C5.31981 26.3038 5.1411 26.572 5.01941 26.8672C4.89772 27.1623 4.83543 27.4785 4.83612 27.7978C4.83612 29.1418 5.91969 30.2306 7.26373 30.2306C7.58341 30.2313 7.90007 30.1688 8.19554 30.0468C8.49102 29.9248 8.75948 29.7456 8.98553 29.5196C9.21157 29.2935 9.39075 29.025 9.51277 28.7296C9.63478 28.4341 9.69724 28.1174 9.69655 27.7978C9.69724 27.4781 9.63478 27.1614 9.51277 26.866C9.39075 26.5705 9.21157 26.302 8.98553 26.076C8.75948 25.8499 8.49102 25.6707 8.19554 25.5487C7.90007 25.4267 7.58341 25.3643 7.26373 25.3649ZM27.3619 27.0476C27.1436 27.0483 26.9277 27.0919 26.7263 27.1761C26.525 27.2602 26.3421 27.3832 26.1883 27.538C26.0345 27.6928 25.9126 27.8764 25.8298 28.0783C25.7469 28.2802 25.7046 28.4964 25.7053 28.7146C25.7053 29.6367 26.4346 30.3817 27.3619 30.3817C27.804 30.3817 28.228 30.206 28.5406 29.8934C28.8533 29.5808 29.0289 29.1568 29.0289 28.7146C29.0289 28.2725 28.8533 27.8485 28.5406 27.5359C28.228 27.2232 27.804 27.0476 27.3619 27.0476ZM4.98719 31.1162C4.30785 31.1176 3.65672 31.3881 3.17636 31.8684C2.69599 32.3488 2.42551 32.9999 2.42413 33.6793C2.42413 35.0962 3.57022 36.2319 4.98719 36.2319C5.32329 36.2333 5.65634 36.1683 5.96725 36.0406C6.27815 35.9129 6.56078 35.7251 6.79892 35.4879C7.03706 35.2508 7.22602 34.9689 7.35495 34.6585C7.48389 34.3481 7.55025 34.0154 7.55025 33.6793C7.55025 32.9995 7.28022 32.3476 6.79955 31.8669C6.31888 31.3862 5.66696 31.1162 4.98719 31.1162ZM29.1123 32.3248C28.9089 32.3241 28.7074 32.3637 28.5194 32.4412C28.3313 32.5187 28.1605 32.6326 28.0167 32.7764C27.8729 32.9202 27.7589 33.0911 27.6814 33.2791C27.6039 33.4671 27.5644 33.6686 27.565 33.872C27.565 34.2837 27.7286 34.6786 28.0197 34.9697C28.3109 35.2609 28.7057 35.4244 29.1175 35.4244C29.5292 35.4244 29.9241 35.2609 30.2152 34.9697C30.5063 34.6786 30.6699 34.2837 30.6699 33.872C30.6692 33.6677 30.6282 33.4655 30.5492 33.2771C30.4703 33.0887 30.3549 32.9177 30.2097 32.7739C30.0645 32.6302 29.8923 32.5165 29.7031 32.4395C29.5139 32.3624 29.3114 32.3234 29.107 32.3248H29.1123ZM28.3933 37.8156C28.0466 37.8156 27.714 37.9533 27.4688 38.1986C27.2235 38.4438 27.0858 38.7764 27.0858 39.1232C27.0858 39.4699 27.2235 39.8025 27.4688 40.0478C27.714 40.293 28.0466 40.4307 28.3933 40.4307C28.7401 40.4307 29.0727 40.293 29.3179 40.0478C29.5632 39.8025 29.7009 39.4699 29.7009 39.1232C29.7009 38.7764 29.5632 38.4438 29.3179 38.1986C29.0727 37.9533 28.7401 37.8156 28.3933 37.8156ZM25.7001 42.6812C25.5509 42.6798 25.403 42.7079 25.2647 42.7637C25.1263 42.8195 25.0004 42.902 24.894 43.0065C24.7875 43.111 24.7027 43.2354 24.6444 43.3727C24.5861 43.5099 24.5553 43.6573 24.554 43.8065C24.554 43.957 24.5836 44.106 24.6412 44.2451C24.6988 44.3841 24.7832 44.5105 24.8896 44.6169C24.9961 44.7233 25.1224 44.8077 25.2615 44.8653C25.4005 44.9229 25.5495 44.9526 25.7001 44.9526C26.3252 44.9526 26.8253 44.4316 26.8253 43.8065C26.8253 43.508 26.7067 43.2218 26.4957 43.0108C26.2847 42.7998 25.9985 42.6812 25.7001 42.6812ZM21.4856 45.3537C21.2 45.3551 20.9265 45.4691 20.7246 45.671C20.5227 45.873 20.4086 46.1465 20.4072 46.432C20.4072 47.0259 20.8917 47.5 21.4856 47.5C21.626 47.5007 21.7652 47.4735 21.8951 47.4201C22.025 47.3667 22.143 47.288 22.2423 47.1887C22.3416 47.0894 22.4202 46.9714 22.4736 46.8415C22.5271 46.7117 22.5542 46.5725 22.5535 46.432C22.5542 46.2911 22.5271 46.1514 22.4738 46.021C22.4205 45.8905 22.3421 45.7718 22.2429 45.6717C22.1437 45.5715 22.0258 45.4919 21.8959 45.4374C21.7659 45.3828 21.6265 45.3544 21.4856 45.3537Z" fill="#83CD29"/>
</svg>
