<svg width="51" height="50" viewBox="0 0 51 50" fill="none" xmlns="http://www.w3.org/2000/svg">
<path d="M37.99 32.8125V14.0625H34.865V35.9375H47.365V32.8125H37.99ZM28.615 14.0625H22.365C21.5362 14.0625 20.7413 14.3917 20.1553 14.9778C19.5692 15.5638 19.24 16.3587 19.24 17.1875V32.8125C19.24 33.6413 19.5692 34.4362 20.1553 35.0222C20.7413 35.6083 21.5362 35.9375 22.365 35.9375H23.9275V39.0625C23.9275 39.8913 24.2567 40.6862 24.8428 41.2722C25.4288 41.8583 26.2237 42.1875 27.0525 42.1875H30.1775V39.0625H27.0525V35.9375H28.615C29.4438 35.9375 30.2386 35.6083 30.8247 35.0222C31.4107 34.4362 31.74 33.6413 31.74 32.8125V17.1875C31.74 16.3587 31.4107 15.5638 30.8247 14.9778C30.2386 14.3917 29.4438 14.0625 28.615 14.0625ZM22.365 32.8125V17.1875H28.615V32.8125H22.365ZM12.99 35.9375H3.61499V32.8125H12.99V26.5625H6.73999C5.91119 26.5625 5.11633 26.2333 4.53028 25.6472C3.94423 25.0612 3.61499 24.2663 3.61499 23.4375V17.1875C3.61499 16.3587 3.94423 15.5638 4.53028 14.9778C5.11633 14.3917 5.91119 14.0625 6.73999 14.0625H16.115V17.1875H6.73999V23.4375H12.99C13.8188 23.4375 14.6136 23.7667 15.1997 24.3528C15.7857 24.9388 16.115 25.7337 16.115 26.5625V32.8125C16.115 33.6413 15.7857 34.4362 15.1997 35.0222C14.6136 35.6083 13.8188 35.9375 12.99 35.9375Z" fill="white"/>
</svg>
