<svg width="50" height="50" viewBox="0 0 50 50" fill="none" xmlns="http://www.w3.org/2000/svg">
<g clip-path="url(#clip0_931_44)">
<path d="M27.1485 38.7406C27.1255 38.4555 27.1118 38.2719 27.1118 38.2719C27.1118 38.2719 26.2501 32.4559 25.2228 30.7195C25.061 30.4434 25.2396 29.3156 25.6942 27.6414C25.9599 28.0981 27.077 30.0602 27.3028 30.6922C27.556 31.4047 27.6075 31.609 27.6075 31.609C27.6075 31.609 26.9942 28.452 25.9888 26.6102C26.2331 25.7892 26.4941 24.9733 26.7716 24.1629C27.1517 24.8309 28.0657 26.4516 28.2669 27.0145C28.3067 27.1289 28.3419 27.2266 28.3724 27.3168L28.4013 27.1551C28.1708 26.177 27.7177 24.4754 27.0981 23.2168C28.4731 16.0574 33.1649 6.48868 37.9731 2.21915H6.60166C4.49736 2.21915 2.77783 3.94024 2.77783 6.04297V40.6406C2.77783 42.7434 4.49893 44.4645 6.60205 44.4645H27.2649C27.1087 42.5608 27.07 40.6494 27.1489 38.741" fill="#0B7FCC"/>
<path d="M25.6941 27.6414C25.9598 28.0977 27.077 30.0586 27.3023 30.6918C27.5559 31.4043 27.6074 31.6086 27.6074 31.6086C27.6074 31.6086 26.9941 28.4516 25.9887 26.6098C26.2333 25.7882 26.4943 24.9717 26.7715 24.1606C27.118 24.7727 27.9129 26.1797 28.198 26.8449L28.2301 26.4695C27.977 25.4945 27.5922 24.2172 27.098 23.2164C28.3645 16.6262 32.4418 7.99376 36.8348 3.33438H6.60117C5.88307 3.335 5.19454 3.62052 4.68673 4.12826C4.17892 4.636 3.8933 5.32448 3.89258 6.04258V38.1168C10.7391 35.4875 18.9957 33.0856 26.1016 33.1895C25.8391 32.1719 25.5387 31.252 25.2227 30.7191C25.0609 30.443 25.2395 29.3141 25.6941 27.6414Z" fill="url(#paint0_linear_931_44)"/>
<path d="M45.2931 1.08634C43.1446 -0.830071 40.5415 -0.059368 37.9751 2.21876C37.5786 2.57321 37.1988 2.94588 36.8368 3.33555C32.4423 7.99415 28.3665 16.6258 27.1001 23.2164C27.5931 24.2176 27.979 25.4945 28.2306 26.4695C28.2962 26.7195 28.3556 26.9547 28.4032 27.1547C28.5146 27.6262 28.5739 27.9344 28.5739 27.9344C28.5739 27.9344 28.5345 27.7848 28.3728 27.3164C28.3423 27.2266 28.3071 27.1273 28.2673 27.0145C28.2466 26.9573 28.2242 26.9008 28.2001 26.8449C27.9134 26.1797 27.12 24.7727 26.772 24.1625C26.4743 25.0414 26.2107 25.8656 25.9892 26.6098C26.9962 28.4516 27.6099 31.6086 27.6099 31.6086C27.6099 31.6086 27.5564 31.4043 27.3044 30.6918C27.0786 30.0586 25.9603 28.0981 25.6962 27.6414C25.2415 29.3137 25.0614 30.443 25.2247 30.7195C25.5407 31.2516 25.8396 32.1734 26.1036 33.1895C26.6989 35.4813 27.1138 38.2723 27.1138 38.2723C27.1138 38.2723 27.1259 38.4555 27.1505 38.741C27.0716 40.6493 27.1103 42.5606 27.2665 44.4641C27.4634 46.8508 27.8341 48.9027 28.3071 50L28.6306 49.8246C27.9349 47.6625 27.6525 44.8273 27.7759 41.5606C27.9634 36.5633 29.1126 30.5391 31.2353 24.2602C34.8255 14.7797 39.8048 7.17501 44.3611 3.54337C40.2075 7.29415 34.5864 19.4356 32.9032 23.932C31.0204 28.9676 29.6853 33.6914 28.8794 38.2188C30.2661 33.9754 34.7571 32.1523 34.7571 32.1523C34.7571 32.1523 36.9591 29.4344 39.5333 25.5555C37.9903 25.9082 35.4591 26.5094 34.6122 26.8649C33.3622 27.3899 33.0236 27.568 33.0236 27.568C33.0236 27.568 37.0747 25.1024 40.5509 23.9856C45.3298 16.4582 50.536 5.76368 45.2935 1.08673" fill="#003956"/>
</g>
<defs>
<linearGradient id="paint0_linear_931_44" x1="22.8868" y1="4.04306" x2="22.8868" y2="36.1808" gradientUnits="userSpaceOnUse">
<stop stop-color="#95D7F4"/>
<stop offset="0.92" stop-color="#0F7FCC"/>
<stop offset="1" stop-color="#0F7FCC"/>
</linearGradient>
<clipPath id="clip0_931_44">
<rect width="50" height="50" fill="white"/>
</clipPath>
</defs>
</svg>
