<svg width="50" height="50" viewBox="0 0 50 50" fill="none" xmlns="http://www.w3.org/2000/svg">
<path d="M42.9688 8.59375H28.5937L25.3125 15.1562H6.875V41.4062H46.25V8.59375H42.9688ZM42.9688 37.8125H10.4687V18.4375H42.9688V37.8125ZM42.9688 15.1562H30.1562L31.7187 11.875H42.8125V15.1562H42.9688Z" fill="#FAD7EE"/>
<path d="M40.3469 21.4062H0.971924L6.90942 41.4063H46.2844L40.3469 21.4062Z" fill="#FAD7EE"/>
<path d="M48.3311 39.7766C48.103 40.1695 47.7849 40.5027 47.4031 40.749C47.0212 40.9952 46.5864 41.1475 46.1344 41.1932C45.6823 41.2389 45.2258 41.1769 44.8024 41.0121C44.379 40.8474 44.0006 40.5846 43.6983 40.2453L37.1171 44.0453C37.2587 44.4727 37.2978 44.9275 37.2312 45.3728C37.1645 45.8182 36.994 46.2416 36.7335 46.6088C36.473 46.9761 36.1297 47.2769 35.7314 47.487C35.3331 47.697 34.891 47.8104 34.4407 47.818C33.9905 47.8256 33.5448 47.7271 33.1397 47.5306C32.7345 47.3341 32.3813 47.045 32.1086 46.6867C31.8358 46.3284 31.6512 45.911 31.5696 45.4681C31.488 45.0253 31.5118 44.5695 31.639 44.1375L25.0186 40.3156C24.7108 40.6388 24.3318 40.8858 23.9118 41.0369C23.4919 41.1881 23.0425 41.2392 22.5993 41.1864C22.1561 41.1335 21.7313 40.9781 21.3586 40.7324C20.986 40.4868 20.6757 40.1576 20.4525 39.7711C20.2292 39.3846 20.0991 38.9514 20.0725 38.5059C20.0459 38.0603 20.1236 37.6147 20.2992 37.2044C20.4749 36.7941 20.7438 36.4303 21.0846 36.1421C21.4254 35.8538 21.8286 35.649 22.2624 35.5438V27.8875C21.8275 27.7836 21.4228 27.5796 21.0806 27.2917C20.7384 27.0038 20.4682 26.64 20.2914 26.2292C20.1147 25.8185 20.0363 25.3721 20.0626 24.9257C20.0888 24.4793 20.2189 24.0452 20.4426 23.6579C20.6662 23.2707 20.9772 22.941 21.3507 22.6952C21.7243 22.4494 22.1501 22.2942 22.5942 22.2419C23.0383 22.1897 23.4885 22.242 23.9088 22.3945C24.3292 22.5469 24.7082 22.7955 25.0155 23.1203L31.639 19.2969C31.5118 18.8686 31.4863 18.4165 31.5647 17.9766C31.643 17.5368 31.8229 17.1213 32.0901 16.7632C32.3573 16.4051 32.7044 16.1144 33.1038 15.9141C33.5031 15.7138 33.9437 15.6095 34.3905 15.6095C34.8373 15.6095 35.2779 15.7138 35.6773 15.9141C36.0767 16.1144 36.4238 16.4051 36.691 16.7632C36.9581 17.1213 37.1381 17.5368 37.2164 17.9766C37.2947 18.4165 37.2693 18.8686 37.1421 19.2969L43.764 23.1203C44.071 22.7949 44.4497 22.5457 44.87 22.3927C45.2904 22.2396 45.7407 22.1868 46.185 22.2385C46.6294 22.2902 47.0555 22.4451 47.4294 22.6906C47.8033 22.9362 48.1147 23.2657 48.3387 23.6529C48.5627 24.0401 48.6932 24.4743 48.7197 24.9209C48.7462 25.3675 48.6681 25.814 48.4914 26.225C48.3148 26.636 48.0446 27.0001 47.7024 27.2882C47.3601 27.5763 46.9553 27.7804 46.5202 27.8844V35.5406C46.9529 35.646 47.3551 35.8506 47.695 36.1383C48.0349 36.4259 48.3033 36.7887 48.4788 37.198C48.6543 37.6073 48.7322 38.0517 48.7063 38.4963C48.6804 38.9408 48.5514 39.3733 48.3296 39.7594L48.3311 39.7766ZM36.4561 20.4938L36.3796 20.5703L45.0483 35.5844L45.1593 35.5547V27.8984C44.7857 27.8056 44.4346 27.6386 44.127 27.4072C43.8194 27.1758 43.5615 26.8848 43.3688 26.5517C43.176 26.2185 43.0523 25.8499 43.005 25.4679C42.9578 25.0859 42.9879 24.6982 43.0936 24.3281L36.4561 20.4938ZM32.3296 20.4938L25.6936 24.325C25.8001 24.6953 25.8309 25.0833 25.7841 25.4658C25.7373 25.8482 25.6139 26.2173 25.4212 26.551C25.2285 26.8847 24.9706 27.1762 24.6627 27.408C24.3549 27.6397 24.0035 27.8071 23.6296 27.9V35.5563L23.7421 35.5859L32.4108 20.5719L32.3296 20.4938ZM35.1952 21.2547C34.6719 21.4047 34.117 21.4047 33.5936 21.2547L24.9249 36.2656C25.3227 36.644 25.6031 37.129 25.7327 37.6625H43.053C43.1818 37.1259 43.4622 36.6378 43.8608 36.2563L35.1952 21.2547ZM36.5155 43.0266L43.1093 39.2188C43.0895 39.1563 43.0718 39.0932 43.0561 39.0297H25.728L25.6983 39.1406L32.3249 42.9688C32.5977 42.6863 32.9254 42.4627 33.2879 42.3117C33.6505 42.1608 34.0401 42.0857 34.4327 42.0911C34.8254 42.0965 35.2127 42.1823 35.571 42.3432C35.9292 42.5041 36.2506 42.7367 36.5155 43.0266Z" fill="#E535AB" stroke="#E535AB" stroke-width="0.129687" stroke-miterlimit="10"/>
</svg>
