<svg width="55" height="50" viewBox="0 0 55 50" fill="none" xmlns="http://www.w3.org/2000/svg">
<g clip-path="url(#clip0_931_48)">
<path d="M29.7512 6.91673C30.0682 6.91674 30.3727 7.04062 30.5998 7.26195C30.8268 7.48328 30.9583 7.78454 30.9664 8.1015L30.9668 8.1324V22.0476C30.9669 22.3647 30.843 22.6693 30.6217 22.8964C30.4004 23.1234 30.0991 23.255 29.7821 23.2631L29.7512 23.2635H18.4044C18.0873 23.2636 17.7827 23.1397 17.5556 22.9183C17.3285 22.6969 17.1969 22.3956 17.1889 22.0785L17.1887 22.0476V8.1324C17.1888 7.81534 17.3127 7.51084 17.534 7.28379C17.7553 7.05675 18.0565 6.92512 18.3735 6.91695L18.4044 6.91673H29.7512ZM29.7512 7.45751H18.4044C18.2295 7.45755 18.0615 7.52536 17.9356 7.64668C17.8096 7.76801 17.7356 7.93341 17.7291 8.10815L17.7284 8.1324V22.0476C17.7287 22.2226 17.7967 22.3907 17.9182 22.5167C18.0397 22.6426 18.2053 22.7166 18.3801 22.7232L18.4044 22.7236H29.7512C29.9261 22.7233 30.0942 22.6552 30.2201 22.5337C30.346 22.4122 30.4199 22.2467 30.4265 22.0719L30.4269 22.0476V8.1324C30.4266 7.95331 30.3553 7.78165 30.2286 7.65511C30.1018 7.52858 29.93 7.45751 29.751 7.45751M20.025 19.8863V20.6961H19.2143V19.8863H20.025ZM29.0765 19.8863V20.6961H20.4308V19.8863H29.0765ZM20.025 16.374V17.1839H19.2143V16.374H20.025ZM29.0765 16.374V17.1839H20.4308V16.374H29.0765ZM20.025 12.9968V13.8064H19.2143V12.9968H20.025ZM29.0765 12.9968V13.8064H20.4308V12.9968H29.0765ZM29.0765 9.88948V10.7002H19.214V9.88927L29.0765 9.88948ZM29.7512 26.0987V26.1073C30.0669 26.1072 30.3702 26.23 30.597 26.4496C30.8238 26.6692 30.9563 26.9684 30.9664 27.2839L30.9668 27.3146V41.2298C30.9669 41.5469 30.843 41.8515 30.6217 42.0786C30.4004 42.3056 30.0991 42.4372 29.7821 42.4453L29.7512 42.4457H18.4044C18.0883 42.4457 17.7847 42.3227 17.5578 42.1026C17.331 41.8826 17.1987 41.5829 17.1892 41.267L17.1887 41.2298V27.3146C17.1888 26.9975 17.3127 26.693 17.534 26.466C17.7553 26.2389 18.0565 26.1073 18.3735 26.0991L18.4044 26.0989L29.7512 26.0987ZM29.7512 26.6397H18.4044C18.2295 26.6397 18.0615 26.7075 17.9356 26.8289C17.8096 26.9502 17.7356 27.1156 17.7291 27.2903L17.7284 27.3146V41.2298C17.7287 41.4048 17.7967 41.5729 17.9182 41.6989C18.0397 41.8248 18.2053 41.8988 18.3801 41.9054L18.4044 41.9058H29.7512C29.9255 41.9055 30.0929 41.838 30.2187 41.7174C30.3445 41.5968 30.4189 41.4323 30.4265 41.2582L30.4269 41.2341V27.3189C30.4266 27.144 30.3586 26.9761 30.2371 26.8503C30.1157 26.7245 29.9502 26.6507 29.7754 26.6444L29.7512 26.644V26.6397ZM20.025 39.0715V39.8824H19.2143V39.0715H20.025ZM29.0765 39.0779V39.8762H20.4308V39.0779H29.0765ZM20.025 35.5592V36.37H19.2143V35.5592H20.025ZM29.0765 35.5654V36.3637H20.4308V35.5654H29.0765ZM20.025 32.1828V32.9927H19.2143V32.1828H20.025ZM29.0765 32.1893V32.9865H20.4308V32.1888L29.0765 32.1893ZM29.0765 29.0755V29.8863H19.214V29.0755H29.0765ZM33.0235 15.0901V15.7648H37.0756V34.1191H33.0235V34.7948H37.7514V15.0901H37.0756H33.0235Z" fill="#8E8F8F"/>
<path d="M4.1507 3.17489C4.94962 1.86438 6.26593 1.1 7.59554 0.656222L7.77688 0.597639L7.95799 0.542918C8.04855 0.516451 8.13889 0.491415 8.22902 0.46781L8.40864 0.422102C8.43868 0.414663 8.46851 0.40751 8.49812 0.400643L8.67623 0.35987L8.76443 0.340772L8.93997 0.304935L9.11357 0.272317L9.28482 0.242274L9.4537 0.215235L9.61958 0.190557L9.78245 0.168669L9.9419 0.149141L10.0977 0.131759L10.2496 0.116523L10.4694 0.0972093L10.6786 0.0821879L10.8764 0.0710291L11.0915 0.0618016L11.2882 0.0562222L11.4084 0.0542909L11.5191 0.0534325H11.6202L11.7526 0.0551492L11.8273 0.0566514L11.9636 0.0613724L12.0237 0.0643767V3.30772C9.15499 3.03476 7.87494 3.90129 7.31057 4.82468L7.25971 4.91137C7.18936 5.03621 7.12874 5.16628 7.07838 5.30043L7.04791 5.38541C7.0429 5.39928 7.03818 5.4133 7.03374 5.42747L7.00778 5.51116L6.9846 5.59335L6.96443 5.67403C6.96114 5.68734 6.95806 5.70057 6.9552 5.71373L6.93868 5.79206L6.93138 5.83069L6.91851 5.90579L6.90735 5.97875L6.89855 6.04936L6.88846 6.15021L6.88181 6.24442L6.87859 6.31824L6.87709 6.38669V6.44893L6.87816 6.50472L6.88031 6.55408L6.88396 6.61416L6.89082 6.68498V7.87661L6.88374 10.3094L6.87516 12.0627L6.86529 13.5373L6.85456 14.7835L6.84383 15.7648L6.83138 16.7202L6.81851 17.5345L6.8022 18.3974L6.79211 18.847L6.78117 19.2719L6.767 19.7451L6.76207 19.8931L6.76164 20.167L6.76014 20.3345L6.75821 20.4479L6.75391 20.6191L6.74705 20.7848L6.74147 20.8856L6.73503 20.9869L6.72688 21.0886L6.71228 21.2414L6.7007 21.3436L6.68718 21.4459L6.67194 21.5483L6.66357 21.5994L6.64533 21.7015L6.63546 21.7526L6.614 21.8545L6.59039 21.9562L6.56443 22.0577C6.55527 22.0915 6.54569 22.1251 6.53567 22.1586L6.50434 22.2594L6.47044 22.3592L6.43353 22.4586C6.01808 23.5322 5.0773 24.4882 2.94748 24.9309C5.01958 25.3612 5.96615 26.2764 6.39855 27.3129L6.43803 27.412C6.47623 27.5116 6.51007 27.6119 6.53954 27.7131L6.56808 27.8144C6.5861 27.882 6.60255 27.95 6.61743 28.0182L6.63846 28.1204L6.64812 28.1717L6.66615 28.274L6.68224 28.3766L6.69619 28.4792L6.70864 28.5818L6.71936 28.6841L6.72838 28.7863L6.7361 28.8882L6.74533 29.0403L6.75005 29.1412L6.75585 29.3103L6.75842 29.4219L6.76035 29.5328L6.76164 29.697L6.76207 29.9695L6.77666 30.4446L6.78954 30.9464L6.80155 31.4841L6.81228 32.0536L6.82409 32.7519L6.83997 33.9054L6.8507 34.8828L6.85627 35.4326L6.86765 36.8373L6.88009 38.9215L6.88868 41.177L6.8919 41.1751V43.1758L6.88868 43.2041L6.88482 43.2466L6.88245 43.2848L6.87924 43.3558L6.87816 43.4118V43.474L6.87967 43.5425L6.88288 43.6163L6.88932 43.7094L6.89555 43.7749L6.90799 43.8783L6.91872 43.9504L6.93138 44.0245L6.9464 44.1006L6.95456 44.1393L6.97301 44.2182L6.98331 44.2582L7.00563 44.3393L7.03095 44.4215C7.03524 44.4355 7.03982 44.4494 7.04469 44.4631L7.07452 44.5468C7.08496 44.575 7.0959 44.6032 7.10735 44.6315L7.14383 44.7165C7.59447 45.7268 8.78267 46.818 11.8563 46.5678L12.0247 46.5528V49.7963L11.9387 49.8006L11.779 49.8051L11.6477 49.8073H11.4917L11.3747 49.8062L11.2481 49.8036L11.1125 49.7998L10.9361 49.7927L10.8116 49.7865L10.6825 49.7788L10.5481 49.7695L10.4095 49.7588L10.2666 49.7459L10.1196 49.7315L9.96872 49.715L9.81443 49.6964L9.65692 49.6755L9.57709 49.6642L9.41529 49.6397L9.33331 49.6268L9.16765 49.5985L9.08396 49.5835L8.91507 49.5509L8.82988 49.5337L8.65821 49.4972L8.48546 49.4573C8.42752 49.4437 8.36951 49.4294 8.31143 49.4144L8.13632 49.3682C6.52902 48.93 4.84018 48.0639 3.97173 46.3667C4.16014 44.2805 5.01808 42.5019 6.55906 41.3948C6.6316 41.3436 6.70506 41.2941 6.77945 41.2461L6.86357 41.1927C6.75914 41.2571 6.65663 41.3252 6.55606 41.397C5.01808 42.5019 4.16014 44.2805 3.97173 46.3584C3.58527 45.5776 3.38267 44.7186 3.37945 43.8474L3.36014 42.9532L3.33503 41.8691L3.3037 40.6004L3.26078 38.9833L3.22173 37.5807L3.16765 35.7444L3.1067 33.7775L3.00456 30.6822L2.97988 29.9644C2.91958 28.3395 2.26743 27.5481 1.58868 27.1661L1.50864 27.123L1.46872 27.1028L1.38868 27.065C1.36207 27.053 1.33553 27.0416 1.30906 27.0307L1.22988 26.9998C1.2037 26.9898 1.17752 26.9805 1.15134 26.9719L1.07366 26.9466C1.04791 26.9388 1.02244 26.9315 0.997262 26.9245L0.936532 26.9084L0.876875 26.894L0.818077 26.8811L0.760566 26.8697L0.676661 26.8551L0.622369 26.8472L0.569794 26.8403L0.494043 26.832L0.42709 26.8315L0.290395 26.83C0.219011 26.829 0.147615 26.829 0.0762316 26.83L0.00219727 26.832V23.0309C0.180094 23.0373 0.339107 23.0341 0.494043 23.0258L0.569794 23.0172L0.622369 23.0105L0.676661 23.0024L0.760566 22.9878L0.818077 22.9764L0.876875 22.9635L0.936532 22.9491L0.997262 22.9333L1.07366 22.9109L1.15134 22.8858L1.22988 22.8579C2.01872 22.5629 2.90885 21.8047 2.97988 19.8931L3.07215 17.1442L3.14361 14.8987L3.18224 13.6245L3.24147 11.5803L3.28009 10.1584L3.30821 9.07532L3.34361 7.62532L3.36421 6.72403L3.37945 6.00923C3.40306 4.88283 3.68074 3.96845 4.1213 3.22639L4.15091 3.17725L4.1507 3.17489ZM42.9153 3.25429V0.0111578L43.0024 0.00686598L43.1234 0.00321791L43.202 0.00171577L43.3406 0.000213623H43.4464L43.5623 0.00150118L43.7408 0.00514925L43.9689 0.0133038L44.091 0.0190977L44.2181 0.0263939L44.4179 0.0399132L44.5567 0.051072L44.6996 0.0639475L44.8466 0.078969L44.997 0.0957072L45.1511 0.114591L45.3082 0.135621L45.4683 0.159227L45.6312 0.184978L45.7134 0.198926L45.8797 0.228754L46.0479 0.261372L46.2179 0.296566L46.3895 0.335192L46.5621 0.376394C46.6489 0.397853 46.7359 0.4206 46.823 0.444634L46.9977 0.49442C48.6307 0.974033 50.3095 1.90901 51.0981 3.7191C51.398 4.42673 51.5551 5.18662 51.5606 5.95515L51.5799 6.84936L51.605 7.93348L51.6226 8.6588L51.6505 9.74463L51.6889 11.1745L51.7183 12.2225L51.7724 14.059L51.8333 16.026L51.9355 19.1212L51.9601 19.8391C52.0215 21.491 52.6945 22.2811 53.3852 22.6556L53.4651 22.697L53.505 22.7163L53.5844 22.7528L53.6638 22.7854C53.6769 22.7907 53.6901 22.7958 53.7033 22.8006L53.7816 22.829L53.8204 22.8418L53.8975 22.8657L53.9355 22.8766L54.0483 22.9056L54.1219 22.9221L54.1936 22.9361L54.2634 22.9481L54.3176 22.9562L54.3702 22.9631L54.446 22.9715C54.5788 22.9785 54.717 22.982 54.8638 22.9788L54.9378 22.9766V26.7788C54.7739 26.773 54.6098 26.7748 54.446 26.7841L54.396 26.7893L54.344 26.7957L54.2634 26.8073L54.1795 26.8219L54.1219 26.8333L54.0631 26.8461L54.0035 26.8605L53.9428 26.8764L53.9048 26.8871L53.8275 26.9107L53.7887 26.9236L53.7101 26.9517L53.6707 26.9667L53.5913 26.9996C52.8344 27.3255 52.0275 28.1004 51.9604 29.9165L51.8676 32.6639L51.7964 34.9097L51.7578 36.1841L51.6985 38.2285L51.6599 39.6504L51.6318 40.7335L51.5964 42.1835L51.5758 43.0848L51.5606 43.7994C51.5546 44.4677 51.4359 45.1303 51.2095 45.7592L51.1825 45.8328L51.1837 45.8397C50.3752 47.9288 48.4185 48.9109 46.6121 49.368L46.4348 49.4114L46.3468 49.4318L46.1715 49.4704L46.0846 49.4882L45.9121 49.5221L45.8264 49.538L45.6569 49.5676L45.5732 49.5813L45.4076 49.6071L45.2449 49.63L45.0855 49.6506L44.9292 49.6689L44.7769 49.6852L44.6286 49.6994L44.414 49.717L44.2767 49.7266L44.0803 49.7382L43.8958 49.7463L43.6704 49.7532L43.5421 49.7554L43.4241 49.7562H43.3172L43.2217 49.7551L43.1385 49.7536L43.037 49.7506L42.949 49.747L42.9183 49.7453V46.5019C45.9215 46.7878 47.1835 45.8247 47.7063 44.8549L47.7513 44.768C47.7656 44.7391 47.7792 44.7102 47.7921 44.6813L47.8297 44.5951C47.8415 44.5665 47.8528 44.5378 47.8636 44.5092L47.8943 44.4245L47.9217 44.3403L47.9344 44.2987L47.9576 44.2165L47.9777 44.1356L47.9955 44.0564L48.0108 43.9792L48.0237 43.9041L48.0346 43.8311L48.0436 43.7603L48.0537 43.6594L48.0584 43.5959L48.0636 43.4914L48.0651 43.4232V43.3609L48.064 43.3047L48.0619 43.2556L48.0597 43.2137L48.0546 43.153L48.0513 43.1247V41.3459L48.0563 39.6899L48.0644 37.9811L48.0741 36.541L48.0867 35.0708L48.1013 33.7513L48.1116 32.9841L48.1213 32.3663L48.1342 31.6577L48.1432 31.2092L48.1533 30.7826L48.1638 30.3803L48.1779 29.9154L48.1784 29.6429L48.1799 29.4768L48.1816 29.3648L48.1844 29.2519L48.1904 29.0811L48.196 28.9665L48.2022 28.8644L48.2097 28.762L48.2183 28.6592L48.229 28.5562L48.2408 28.4532L48.2546 28.3498L48.2623 28.2983L48.2788 28.1951L48.2975 28.0921L48.3183 27.9891L48.3415 27.8861C48.3697 27.7665 48.4031 27.6476 48.4419 27.5294L48.4769 27.4285C48.5251 27.2946 48.5818 27.1626 48.647 27.0324L48.6977 26.9354C49.1883 26.0345 50.141 25.2616 51.9925 24.8766C49.6573 24.3918 48.7518 23.2914 48.4003 22.0953L48.3719 21.994C48.3541 21.9263 48.3376 21.8584 48.3226 21.7901L48.3016 21.688L48.2919 21.6369L48.2739 21.5343L48.2578 21.4318L48.2438 21.3292L48.2314 21.2268L48.2207 21.1245L48.2116 21.0223L48.2039 20.9204L48.1947 20.7682L48.19 20.6674L48.1842 20.4983L48.1816 20.3867L48.1797 20.276L48.1784 20.1116L48.1779 19.8391L48.1679 19.5221L48.1569 19.1191L48.1445 18.6004L48.1331 18.0481L48.1224 17.4665L48.1099 16.6539L48.0951 15.4852L48.084 14.3931L48.0737 13.1281L48.0601 10.8785L48.0513 8.44077C48.2359 8.33891 48.4144 8.22732 48.587 8.10601C49.4462 7.49056 50.0934 6.66094 50.5297 5.68498L50.5597 5.61674C50.1228 6.62232 49.4653 7.47661 48.584 8.1073C48.4402 8.20815 48.2921 8.3025 48.1398 8.39034L48.0481 8.44184V6.63197L48.0513 6.60365L48.0552 6.56094L48.0576 6.52275L48.0608 6.45193L48.0619 6.39592V6.33369L48.0604 6.26502L48.0571 6.1912L48.0533 6.13004L48.0447 6.03262L48.032 5.92918L48.0213 5.8573L48.0086 5.78305L47.9936 5.70687L47.9855 5.66824L47.967 5.58948L47.9567 5.54936L47.9344 5.46824L47.9091 5.38605C47.9048 5.37232 47.9002 5.35844 47.8953 5.34442L47.8655 5.26073C47.8551 5.23269 47.8441 5.20451 47.8327 5.17618L47.7962 5.09099C47.3455 4.0809 46.1573 2.9897 43.0837 3.2397L42.9153 3.25429Z" fill="#FE0902"/>
<path d="M6.69099 7.74506C6.72333 7.76853 6.75637 7.79099 6.79013 7.81245L6.89078 7.87682V6.68519L6.88756 6.65687L6.88391 6.61416L6.88134 6.57597L6.87812 6.50494L6.87704 6.44914V6.3867L6.87855 6.31824L6.88177 6.24442L6.88584 6.18219L6.89121 6.11717L6.8985 6.04936L6.9073 5.97876L6.91825 5.90579L6.93112 5.83069L6.94657 5.75322L6.95516 5.71373L6.97404 5.63391L6.99571 5.55236L7.00773 5.51094L7.03348 5.42747L7.04786 5.38541L7.07833 5.30043C7.12683 5.17232 7.18649 5.04163 7.25966 4.91137L7.31052 4.82468C7.8749 3.90129 9.15494 3.03498 12.0238 3.30773V0.0643777L11.9637 0.0613734L11.8605 0.0577253L11.7914 0.055794L11.6202 0.0536481H11.5193L11.4084 0.0542918L11.2247 0.0577253L11.0569 0.0630901L10.8764 0.07103L10.6785 0.0824034L10.4693 0.0974249L10.3238 0.109657L10.0976 0.13176L9.94185 0.148927L9.78241 0.16867L9.61953 0.190558L9.45365 0.215236L9.28477 0.242275L9.11353 0.272318L8.93992 0.304936L8.76438 0.340773L8.67597 0.360086L8.49807 0.400644C8.46846 0.407511 8.43863 0.414664 8.40859 0.422103L8.22898 0.467811C8.13885 0.491416 8.0485 0.516452 7.95795 0.542918L7.77683 0.59764L7.5955 0.656223C6.26589 1.1 4.94958 1.86438 4.15065 3.17489C4.40902 5.08841 5.25237 6.71974 6.69099 7.74506ZM12.0247 49.7966V46.553C8.88713 46.8515 7.65001 45.7869 7.17104 44.7758L7.13177 44.6893C7.11332 44.6468 7.09586 44.6038 7.07941 44.5605L7.04893 44.4753L7.03477 44.4333L7.0088 44.3496L6.98563 44.2676L6.96524 44.1867L6.94765 44.1075L6.93241 44.0303L6.91932 43.9551L6.90859 43.8822L6.89958 43.8114L6.88949 43.7105L6.88284 43.6163L6.87962 43.5425L6.87812 43.474V43.4118L6.87919 43.356L6.88134 43.3067L6.88348 43.2648L6.88863 43.2041L6.89185 43.174V41.1751C6.77883 41.2449 6.66796 41.3182 6.55923 41.3948C5.01803 42.5019 4.16009 44.2805 3.97168 46.367C4.84035 48.064 6.52876 48.93 8.13627 49.3682L8.31138 49.4144C8.36932 49.4294 8.42733 49.4437 8.48541 49.4573L8.65838 49.497L8.82983 49.5337L8.99958 49.5674L9.08391 49.5833L9.25065 49.6129L9.33327 49.6266L9.49636 49.6524L9.57704 49.6642L9.73606 49.6863L9.81438 49.6964L9.96889 49.715L10.1195 49.7315L10.2665 49.7459L10.4094 49.7588L10.5481 49.7695L10.6824 49.7788L10.8116 49.7865L10.9961 49.7955L11.1125 49.7998L11.2483 49.8037L11.3749 49.8062L11.4916 49.8073L11.6476 49.8071L11.779 49.8051L11.8841 49.8024L12.0247 49.7966ZM51.0981 3.71888C50.259 1.79356 48.4133 0.858369 46.6867 0.40794L46.5144 0.364592L46.3431 0.324249L46.2582 0.30515L46.0891 0.269313L46.0049 0.252575L45.8384 0.22103L45.674 0.19206L45.5118 0.165665L45.3522 0.141631L45.1953 0.120172L45.0414 0.100858L44.891 0.0834764L44.744 0.0682403L44.6009 0.054721L44.3938 0.0379828L44.1966 0.0248927L44.0103 0.0148069L43.8356 0.00772532L43.7262 0.00450644L43.5942 0.00171674L43.4721 0H43.361L43.2607 0.000643777L43.1723 0.00193133L43.0625 0.00472103L42.9818 0.00772532L42.9152 0.0109442V3.25451C46.0528 2.95579 47.2899 4.02039 47.7689 5.03155L47.8082 5.11824C47.8268 5.16116 47.8442 5.20408 47.8605 5.247L47.891 5.33197C47.8959 5.34599 47.9006 5.36009 47.9052 5.37425L47.9311 5.45773L47.9543 5.53991L47.9747 5.6206L47.9923 5.7L48.0075 5.77725L48.0206 5.85236L48.0313 5.92532L48.0404 5.99614L48.0504 6.097L48.0571 6.19099L48.0603 6.26502L48.0618 6.33326V6.39549L48.0607 6.4515L48.0586 6.50086L48.0552 6.56094L48.0481 6.63219V8.44185C48.2326 8.33984 48.4112 8.22825 48.5839 8.10708C49.9785 7.1088 50.8135 5.55107 51.0981 3.71888ZM48.7219 41.7569C48.5079 41.6048 48.2839 41.4674 48.0513 41.3457V43.1245L48.0545 43.1528L48.0582 43.1953L48.0607 43.2335L48.064 43.3045L48.065 43.3605V43.4227L48.0635 43.4912L48.0584 43.5957L48.0537 43.6592L48.0436 43.7601L48.0346 43.8309L48.0238 43.9039L48.0107 43.979L47.9955 44.0562L47.9777 44.1356L47.9575 44.2163L47.9343 44.2985L47.9217 44.3401L47.8942 44.4242L47.8635 44.5092C47.8528 44.5376 47.8415 44.5662 47.8296 44.5951L47.7923 44.6811C47.7793 44.7102 47.7655 44.7391 47.7511 44.7678L47.7062 44.8547C47.1835 45.8247 45.9215 46.7876 42.9182 46.5017V49.7451L42.9663 49.7476L43.1045 49.7526L43.2743 49.7556L43.3773 49.7562L43.5532 49.7551L43.6837 49.7528L43.8243 49.7487L43.9985 49.7418L44.1843 49.7322L44.3144 49.7238L44.518 49.7088L44.659 49.6964L44.8041 49.6822L44.9528 49.6661L45.1052 49.6479L45.2605 49.6277L45.4191 49.6049L45.5801 49.58C45.6072 49.5758 45.6344 49.5712 45.6616 49.5665L45.8264 49.5378L45.9931 49.5062L46.0773 49.4895L46.2468 49.4539L46.332 49.435L46.5037 49.3946C48.3397 48.9496 50.3588 47.9704 51.1839 45.8395C50.8573 44.1371 50.035 42.6974 48.7219 41.7569Z" fill="#FFAB00"/>
</g>
<defs>
<clipPath id="clip0_931_48">
<rect width="54.94" height="50" fill="white"/>
</clipPath>
</defs>
</svg>
