<svg width="44" height="44" viewBox="0 0 44 44" fill="none" xmlns="http://www.w3.org/2000/svg">
<path d="M22.1648 3.29462e-05C13.5459 -0.014971 5.43366 5.09574 1.71067 13.1854L12.179 13.2103V14.3552C8.95558 13.9673 9.23943 15.6412 9.69575 17.4179L16.5678 34.6407L21.6187 22.8007L19.3 17.2519C18.4577 15.7658 18.44 14.117 14.9942 14.2722L15.0426 13.2172L30.3961 13.2546V14.4368C28.598 14.5423 26.4336 13.9847 27.5809 17.6668L33.7906 33.9784L37.1851 24.4558C38.2967 20.4639 37.2506 16.6278 35.9296 12.866C35.195 10.3424 35.5376 8.23485 38.8306 7.39882C33.8042 2.26822 27.8735 0.0099769 22.165 3.29462e-05H22.1648ZM43.0462 15.059L33.0922 41.0051C35.8411 38.6243 38.6597 37.7577 42.1087 31.17C44.4035 25.6907 44.1673 20.6146 43.0462 15.0589V15.059ZM0.657049 15.4793C-0.31451 23.139 -0.22563 25.3824 2.1794 31.6375C5.31438 37.6282 7.74546 38.8904 11.1959 41.2402L0.657005 15.4793H0.657049ZM22.5534 25.1982L15.1767 42.9962C20.3546 44.4741 24.9877 44.2892 29.229 42.645L22.5534 25.1982V25.1982Z" fill="#4A72A2"/>
</svg>
